<svg width="1236" height="572" viewBox="0 0 1236 572" fill="none" xmlns="http://www.w3.org/2000/svg">
<path d="M512.494 400.961C510.567 400.034 508.55 399.301 506.474 398.792C506.325 400.662 504.517 402.622 501.56 402.443C500.23 402.353 497.796 401.724 496.541 401.29C492.941 400.034 488.699 400.767 485.427 403.206C487.384 401.216 489.371 399.211 491.626 397.64C493.882 396.069 496.81 393.794 499.424 393.765C501.948 393.735 505.683 394.543 506.4 397.789C507.938 398.148 509.462 398.627 510.94 399.226C508.446 396.353 506.071 393.361 503.83 390.248C503.771 390.248 503.726 390.248 503.666 390.204C501.545 389.126 499.334 388.303 497.049 387.75C496.914 389.62 495.107 391.595 492.134 391.401C490.805 391.311 488.37 390.682 487.115 390.248C483.515 388.992 479.273 389.725 476.002 392.164C477.959 390.174 479.945 388.169 482.201 386.598C484.457 385.027 487.384 382.752 489.998 382.723C492.523 382.693 496.257 383.501 496.974 386.747C498.961 387.211 500.903 387.869 502.77 388.722C500.678 385.715 498.722 382.603 496.899 379.401C494.793 378.324 492.568 377.516 490.282 376.947C490.148 378.817 488.34 380.792 485.368 380.598C484.038 380.508 481.603 379.88 480.349 379.446C476.749 378.189 472.507 378.922 469.235 381.361C471.192 379.371 473.179 377.366 475.434 375.795C477.69 374.224 480.618 371.95 483.232 371.92C485.756 371.89 489.49 372.698 490.207 375.945C492.224 376.423 494.196 377.097 496.093 377.965C495.241 376.423 494.405 374.852 493.613 373.266C492.956 371.935 492.343 370.573 491.716 369.227C490.103 367.76 488.37 366.474 486.518 365.381C485.92 367.177 483.74 368.598 480.976 367.581C479.736 367.117 477.585 365.815 476.495 365.037C473.388 362.793 469.191 362.329 465.501 363.795C467.846 362.389 470.206 360.983 472.731 360.07C475.255 359.157 478.586 357.751 481.066 358.454C483.471 359.142 486.802 360.968 486.697 364.364C488.116 365.187 489.475 366.115 490.775 367.147C488.953 362.943 487.369 358.619 485.98 354.22C484.531 352.424 482.918 350.808 481.17 349.372C480.364 351.078 478.033 352.185 475.434 350.764C474.269 350.12 472.327 348.504 471.356 347.562C468.593 344.868 464.53 343.776 460.721 344.704C463.201 343.642 465.77 341.771 468.369 341.233C470.968 340.694 474.344 340.574 476.689 341.652C478.96 342.684 482.007 345.003 481.454 348.385C482.813 349.462 484.098 350.659 485.278 351.946C484.113 348.01 483.127 344.001 482.32 339.931C482.291 339.901 482.261 339.886 482.231 339.841C480.827 337.866 479.243 336.071 477.481 334.485C476.599 336.161 474.224 337.148 471.715 335.577C470.58 334.874 468.727 333.138 467.801 332.151C465.172 329.308 461.184 327.991 457.345 328.724C459.87 327.797 462.558 326.076 465.172 325.672C467.786 325.268 471.088 325.313 473.388 326.495C475.599 327.647 478.526 330.146 477.824 333.497C479.288 334.799 480.662 336.25 481.902 337.821C481.125 333.557 480.528 329.248 480.155 324.909C480.155 324.789 479.916 322.964 479.228 320.226C477.675 320.869 475.539 320.196 474.434 317.578C473.896 316.306 473.283 313.687 473.074 312.281C472.432 308.256 469.908 304.74 466.472 303.109C468.966 303.783 471.476 304.471 473.761 305.668C476.047 306.865 479.213 308.271 480.423 310.665C481.589 312.969 482.649 316.874 480.379 319.388C480.812 321.109 481.14 322.859 481.335 324.64C481.335 324.655 481.335 324.67 481.335 324.685C481.335 324.774 481.35 324.864 481.364 324.954C481.364 324.999 481.364 325.044 481.364 325.089C481.603 327.677 481.917 330.265 482.291 332.824C482.858 330.999 483.545 329.218 484.352 327.483C484.352 327.468 484.322 327.453 484.307 327.438C482.111 324.744 483.979 320.854 485.666 318.64C487.354 316.426 490.402 314.75 492.956 313.822C495.51 312.894 498.632 313.104 501.291 312.7C497.482 313.942 494.27 317.114 492.866 320.974C492.373 322.321 491.283 324.804 490.491 326.001C488.848 328.485 486.518 328.889 485.054 328.066C484.038 330.28 483.217 332.57 482.619 334.934C483.306 339.123 484.188 343.267 485.248 347.337C485.861 345.063 486.667 342.849 487.653 340.709C485.876 338.031 487.698 334.245 489.311 332.046C490.984 329.772 493.987 328.036 496.496 327.049C499.006 326.061 502.038 326.226 504.637 325.777C500.903 327.093 497.721 330.355 496.302 334.305C495.809 335.682 494.704 338.21 493.912 339.437C492.164 342.16 489.67 342.489 488.295 341.427C487.235 343.761 486.398 346.2 485.801 348.699C485.771 348.803 485.726 348.878 485.666 348.938C485.98 350.06 486.294 351.182 486.637 352.305C487.549 355.297 488.579 358.23 489.7 361.132C490.297 359.023 491.059 356.958 491.97 354.968C490.207 352.29 492.015 348.504 493.643 346.32C495.316 344.046 498.318 342.31 500.828 341.322C503.337 340.335 506.37 340.5 508.969 340.051C505.234 341.367 502.053 344.629 500.634 348.579C500.141 349.956 499.035 352.484 498.244 353.711C496.496 356.419 494.001 356.763 492.642 355.701C491.656 357.9 490.85 360.19 490.267 362.539C491.776 366.339 493.449 370.05 495.286 373.656C495.913 371.321 496.735 369.047 497.736 366.863C495.958 364.184 497.781 360.399 499.394 358.2C501.067 355.925 504.069 354.19 506.579 353.202C509.088 352.215 512.12 352.379 514.72 351.931C510.985 353.247 507.804 356.509 506.385 360.459C505.892 361.835 504.786 364.364 503.995 365.591C502.247 368.314 499.752 368.643 498.378 367.581C497.318 369.915 496.481 372.354 495.884 374.852C497.586 378.114 499.439 381.271 501.41 384.338C502.038 381.959 502.859 379.655 503.875 377.441C502.127 374.793 503.92 371.067 505.518 368.898C507.176 366.653 510.134 364.933 512.598 363.975C515.063 363.017 518.066 363.167 520.62 362.718C516.945 364.02 513.793 367.237 512.389 371.127C511.896 372.488 510.806 374.987 510.029 376.184C508.297 378.862 505.847 379.191 504.502 378.144C503.457 380.448 502.635 382.842 502.038 385.311C502.038 385.311 502.038 385.326 502.038 385.341C504.01 388.348 506.101 391.236 508.311 394.019C508.939 391.73 509.745 389.5 510.731 387.346C508.954 384.668 510.776 380.882 512.389 378.683C514.062 376.409 517.065 374.673 519.574 373.685C522.084 372.698 525.116 372.863 527.715 372.414C523.981 373.73 520.799 376.992 519.38 380.942C518.887 382.319 517.782 384.847 516.99 386.074C515.242 388.782 512.748 389.126 511.389 388.064C510.403 390.263 509.596 392.538 509.014 394.887C509.267 395.201 509.506 395.53 509.76 395.844C520.829 409.265 534.661 419.993 550.121 427.145C550.808 427.459 550.33 428.671 549.628 428.342C540.89 424.302 532.674 419.155 525.161 413.006C520.695 409.34 516.497 405.33 512.584 401.021L512.494 400.961Z" fill="#FFCC98"/>
<path d="M951.675 507.147C951.885 504.813 954.484 503.287 956.814 503.511C959.144 503.736 961.131 505.277 962.729 506.983C965.328 509.751 967.091 512.818 968.809 516.095C968.614 512.578 968.54 509.062 968.584 505.561C968.614 503.242 968.689 500.923 968.823 498.604C963.595 498.08 958.532 495.971 954.484 492.589C952.96 491.317 951.466 489.582 951.646 487.592C951.87 485.273 954.469 483.732 956.784 483.956C959.099 484.18 961.086 485.707 962.684 487.412C965.373 490.255 967.165 493.442 968.928 496.853C969.406 489.716 970.392 482.594 971.975 475.622C966.986 474.246 962.4 471.388 958.995 467.468C957.68 465.957 956.485 464.012 956.993 462.081C957.576 459.822 960.384 458.715 962.639 459.313C964.895 459.912 966.613 461.722 967.927 463.652C970.048 466.78 971.303 470.071 972.468 473.572C974.261 466.241 976.785 458.805 981.162 452.64C981.251 452.506 981.356 452.386 981.446 452.266C976.636 450.202 972.438 446.685 969.6 442.272C968.525 440.596 967.614 438.501 968.375 436.661C969.272 434.506 972.214 433.818 974.35 434.731C976.501 435.643 977.935 437.693 978.951 439.788C980.743 443.484 981.505 447.224 982.207 451.219C987.45 444.232 993.993 438.172 998.982 431.005C994.068 428.955 989.781 425.394 986.883 420.906C985.807 419.23 984.896 417.135 985.658 415.295C986.554 413.14 989.497 412.452 991.633 413.365C993.784 414.278 995.218 416.327 996.234 418.422C998.086 422.207 998.833 426.068 999.535 430.182C1000.74 428.372 1001.86 426.487 1002.82 424.497C1004.76 420.457 1005.82 416.043 1006.14 411.539C1000.73 410.896 995.531 408.532 991.483 404.866C990.005 403.52 988.586 401.724 988.854 399.749C989.168 397.445 991.827 396.009 994.142 396.338C996.443 396.667 998.37 398.268 999.893 400.034C1002.69 403.265 1004.42 406.841 1006.18 410.687C1006.54 403.4 1004.97 395.919 1002.01 389.44C997.204 388.258 992.738 385.715 989.303 382.154C987.913 380.718 986.614 378.847 987.017 376.887C987.48 374.598 990.229 373.356 992.499 373.82C994.785 374.299 996.592 376.019 998.011 377.875C1000.27 380.837 1001.69 384.009 1003.02 387.376C1003.12 387.451 1003.22 387.57 1003.28 387.72C1005.93 393.181 1007.42 399.166 1007.87 405.211C1007.97 406.542 1008.02 407.889 1008.02 409.235C1009.84 404.777 1012.87 400.812 1016.74 397.939C1018.34 396.742 1020.37 395.71 1022.25 396.353C1024.45 397.116 1025.33 400.004 1024.57 402.203C1023.81 404.403 1021.85 405.989 1019.83 407.141C1016.07 409.295 1012.16 410.298 1007.96 411.3C1007.84 414.113 1007.45 416.926 1006.67 419.634C1005.49 423.734 1003.58 427.429 1001.27 430.9C1004.97 427.594 1009.62 425.349 1014.52 424.542C1016.49 424.212 1018.77 424.212 1020.15 425.649C1021.76 427.324 1021.22 430.302 1019.55 431.918C1017.86 433.534 1015.41 434.042 1013.08 434.147C1008.63 434.357 1004.6 433.399 1000.28 432.337C996.308 437.948 991.364 442.99 986.987 448.182C985.613 449.812 984.284 451.488 983.059 453.209C986.898 449.424 991.917 446.85 997.234 445.952C999.206 445.623 1001.48 445.623 1002.87 447.059C1004.48 448.735 1003.96 451.713 1002.27 453.329C1000.58 454.944 998.131 455.453 995.815 455.558C991.259 455.767 987.152 454.78 982.715 453.703C981.431 455.558 980.251 457.488 979.265 459.553C977.457 463.338 976.068 467.318 974.948 471.343C974.649 472.42 974.365 473.497 974.096 474.575C977.233 470.819 981.431 467.962 986.061 466.42C987.958 465.792 990.214 465.433 991.797 466.645C993.649 468.051 993.575 471.074 992.156 472.929C990.737 474.784 988.391 475.667 986.121 476.131C981.909 476.984 977.92 476.714 973.663 476.37C972.11 483.178 971.199 490.165 970.735 497.138C972.946 492.529 976.516 488.594 980.878 485.946C982.581 484.914 984.702 484.076 986.524 484.899C988.645 485.871 989.243 488.819 988.272 490.943C987.301 493.068 985.21 494.444 983.089 495.402C979.056 497.227 975.008 497.826 970.661 498.439C970.601 499.367 970.556 500.295 970.526 501.207C970.317 506.279 970.332 511.382 970.646 516.469C972.872 512.025 976.367 508.21 980.624 505.636C982.327 504.604 984.448 503.751 986.27 504.589C988.391 505.561 988.989 508.509 988.018 510.633C987.047 512.758 984.956 514.135 982.835 515.092C978.921 516.858 974.978 517.486 970.765 518.085C971.184 523.875 971.975 529.635 973.23 535.291C973.499 536.473 971.647 536.802 971.393 535.62C970.123 529.905 969.331 524.084 968.928 518.234C963.67 517.71 958.576 515.571 954.513 512.16C952.975 510.873 951.481 509.122 951.66 507.132L951.675 507.147Z" fill="#FFCC98"/>
<path d="M1051.62 531.311H291.115C277.343 531.85 258.552 535.71 258.014 539.121C257.386 542.996 278.269 544.448 294.073 544.642C328.682 545.061 363.292 545.495 397.902 545.914C401.069 545.959 404.4 546.004 407.118 546.408C414.647 547.515 412.212 550.552 405.296 551.884C398.38 553.216 389.134 553.485 380.844 554.218C372.568 554.951 364.099 556.597 364.637 558.737C365.369 561.654 380.664 562.701 392.614 562.896C442.415 563.719 492.485 563.569 542.197 562.432C563.139 561.953 586.949 561.519 602.439 565.006C606.906 566.008 610.386 567.295 615.495 568.103C655.064 574.297 720.967 570.212 763.628 570.676C808.65 571.17 854.612 571.634 897.945 568.612C910.029 567.774 923.174 566.322 927.327 563.42C931.733 560.337 924.1 557.091 918.245 554.158C912.39 551.226 908.924 547.216 919.007 545.061C924.354 543.924 931.957 543.715 939.053 543.655C974.454 543.385 1011.69 545.585 1044.24 542.174C1061.73 540.333 1060.6 535.411 1051.62 531.296V531.311Z" fill="#4E5488"/>
<path d="M424.129 31.4876C421.993 30.4851 418.991 30.9639 417.467 33.1633C415.839 35.5273 416.974 38.6095 417.094 38.9686C417.183 39.0734 417.258 39.1781 417.348 39.2828C417.258 39.1781 417.168 39.0734 417.094 38.9686C416.78 38.7592 414.017 36.9787 411.358 38.041C408.878 39.0285 407.743 41.8563 408.266 44.1754C409.192 48.4247 415.346 49.6665 416.048 49.8161C420.216 50.669 423.367 48.8286 424.443 48.1105C424.473 48.0955 424.488 48.0805 424.503 48.0656C424.533 48.0357 424.547 48.0207 424.577 47.9908C425.503 47.0631 427.804 44.4447 427.893 40.3302C427.908 39.597 428.043 33.3279 424.114 31.4876H424.129Z" fill="white"/>
<path d="M321.183 95.1961C319.525 95.4056 317.912 96.8419 317.852 98.7272C317.778 100.747 319.615 102.168 319.824 102.333L320.093 102.423C320.003 102.393 319.914 102.363 319.824 102.333C319.555 102.333 317.24 102.318 316.06 103.964C314.955 105.49 315.358 107.615 316.538 108.797C318.704 110.966 322.841 109.38 323.319 109.201C326.128 108.123 327.308 105.834 327.681 104.996C327.681 104.981 327.696 104.966 327.711 104.951C327.711 104.921 327.711 104.906 327.726 104.877C327.935 103.979 328.309 101.54 326.8 99.0563C326.531 98.6224 324.231 94.8221 321.198 95.2111L321.183 95.1961Z" fill="white"/>
<path d="M886.239 314.106C886.882 312.55 886.434 310.456 884.835 309.453C883.117 308.391 880.981 309.289 880.728 309.393C880.653 309.453 880.578 309.528 880.518 309.588C880.593 309.528 880.653 309.453 880.728 309.393C880.862 309.169 882.027 307.149 881.191 305.309C880.414 303.588 878.382 302.885 876.769 303.319C873.812 304.127 873.139 308.511 873.05 309.004C872.587 311.982 873.991 314.136 874.529 314.884C874.529 314.899 874.558 314.914 874.558 314.929C874.573 314.944 874.588 314.959 874.618 314.974C875.305 315.603 877.232 317.129 880.13 317.054C880.638 317.054 885.074 316.919 886.239 314.091V314.106Z" fill="white"/>
<path d="M829.465 193.048C829.241 191.387 827.822 189.786 825.925 189.727C823.908 189.667 822.504 191.507 822.34 191.731C822.34 191.462 822.34 189.143 820.697 187.961C819.158 186.869 817.052 187.273 815.872 188.455C813.706 190.624 815.319 194.769 815.499 195.248C816.589 198.045 818.875 199.227 819.726 199.602C819.741 199.602 819.756 199.616 819.771 199.631C819.801 199.631 819.816 199.631 819.845 199.646C820.757 199.841 823.191 200.215 825.656 198.689C826.089 198.42 829.868 196.1 829.465 193.063V193.048Z" fill="white"/>
<path d="M433.403 352.454C431.939 351.631 429.803 351.811 428.623 353.277C427.353 354.848 427.981 357.092 428.055 357.347C428.115 357.422 428.16 357.511 428.22 357.586C428.16 357.511 428.115 357.437 428.055 357.347C427.846 357.182 425.994 355.791 424.067 356.389C422.275 356.958 421.319 358.888 421.558 360.549C421.991 363.586 426.263 364.798 426.741 364.933C429.624 365.756 431.939 364.633 432.746 364.17C432.761 364.17 432.776 364.155 432.791 364.14C432.806 364.125 432.82 364.11 432.85 364.095C433.552 363.496 435.315 361.761 435.584 358.873C435.629 358.364 436.062 353.95 433.388 352.439L433.403 352.454Z" fill="#FFDEF8"/>
<path d="M857.906 80.0844C857.682 78.4236 856.262 76.8227 854.365 76.7628C852.349 76.703 850.945 78.5433 850.78 78.7677C850.78 78.4984 850.78 76.1793 849.137 74.9973C847.599 73.9051 845.493 74.309 844.313 75.491C842.147 77.6605 843.76 81.805 843.939 82.2838C845.03 85.0817 847.315 86.2637 848.166 86.6378C848.181 86.6378 848.196 86.6528 848.211 86.6528C848.241 86.6528 848.256 86.6528 848.286 86.6677C849.197 86.8622 851.632 87.2363 854.097 85.7101C854.53 85.4408 858.309 83.1217 857.906 80.0844Z" fill="white"/>
<path d="M581.948 64.7333C580.439 64.0151 578.318 64.3593 577.242 65.9153C576.092 67.5911 576.884 69.7606 576.989 70.0149C577.048 70.0897 577.108 70.1646 577.168 70.2394L576.989 70.0149C576.764 69.8653 574.823 68.6085 572.94 69.3566C571.193 70.0598 570.386 72.0498 570.745 73.6956C571.402 76.688 575.749 77.5858 576.242 77.6755C579.184 78.274 581.41 76.9873 582.172 76.4636C582.187 76.4636 582.202 76.4486 582.217 76.4337C582.232 76.4187 582.246 76.4037 582.276 76.3738C582.934 75.7155 584.562 73.8602 584.621 70.9576C584.621 70.4488 584.726 66.0051 581.948 64.7034V64.7333Z" fill="white"/>
<path d="M420.201 218.963C418.692 218.244 416.571 218.589 415.495 220.145C414.345 221.82 415.137 223.99 415.241 224.244C415.017 224.095 413.076 222.838 411.193 223.586C409.446 224.289 408.639 226.279 408.998 227.925C409.655 230.917 414.002 231.815 414.495 231.905C417.437 232.503 419.663 231.217 420.425 230.693C420.44 230.693 420.455 230.678 420.47 230.663C420.484 230.648 420.499 230.633 420.529 230.603C421.187 229.945 422.815 228.089 422.874 225.187C422.874 224.678 422.979 220.234 420.201 218.933V218.963Z" fill="white"/>
<path d="M368.488 78.1094L374.194 93.2061L368.921 95.211C366.441 96.1537 363.663 94.8968 362.722 92.4131L360.421 86.3385C359.48 83.8548 360.735 81.0719 363.215 80.1293L368.488 78.1243V78.1094Z" fill="#8C91BE"/>
<path d="M393.134 85.6353C392.104 88.3734 376.18 92.458 376.18 92.458L370.474 77.3613C370.474 77.3613 372.461 75.0571 372.267 72.2592C372.058 69.4912 371.968 65.8853 374.074 65.6609C376.195 65.4365 378.854 70.359 377.749 74.5933C377.749 74.5933 384.441 69.7306 387.309 71.1819C390.027 72.5435 394.105 83.0618 393.149 85.6203L393.134 85.6353Z" fill="#8C91BE"/>
<path d="M334.983 300.895L340.689 315.992L335.416 317.997C332.937 318.939 330.158 317.682 329.217 315.199L326.917 309.124C325.976 306.64 327.231 303.857 329.71 302.915L334.983 300.91V300.895Z" fill="#8C91BE"/>
<path d="M359.645 308.406C358.614 311.144 342.691 315.229 342.691 315.229L336.985 300.132C336.985 300.132 338.972 297.828 338.777 295.03C338.568 292.262 338.479 288.656 340.585 288.431C342.706 288.207 345.365 293.13 344.259 297.364C344.259 297.364 350.951 292.501 353.819 293.952C356.538 295.314 360.616 305.832 359.66 308.391L359.645 308.406Z" fill="#8C91BE"/>
<path d="M942.682 15.0577L941.502 26.1745L937.812 25.7855C936.08 25.6059 934.825 23.9601 935.019 22.1347L935.497 17.6611C935.691 15.8357 937.26 14.4891 938.992 14.6687L942.682 15.0577Z" fill="#8C91BE"/>
<path d="M954.871 27.3415C953.452 28.718 942.891 26.3241 942.891 26.3241L944.071 15.2073C944.071 15.2073 945.923 14.3843 946.64 12.6039C947.357 10.8234 948.373 8.5641 949.672 9.07281C950.972 9.59648 951.062 13.4567 949.15 15.7459C949.15 15.7459 954.527 14.8033 955.767 16.5838C956.947 18.2745 956.2 26.0548 954.856 27.3415H954.871Z" fill="#8C91BE"/>
<path d="M924.626 164.246L927.449 177.622L931.886 176.68C933.977 176.231 935.291 174.091 934.828 171.892L933.693 166.505C933.23 164.306 931.154 162.87 929.062 163.304L924.626 164.246Z" fill="#8C91BE"/>
<path d="M911.317 180.719C913.229 182.216 925.761 177.981 925.761 177.981L922.938 164.605C922.938 164.605 920.578 163.842 919.488 161.762C918.397 159.683 916.874 157.064 915.35 157.857C913.826 158.65 914.2 163.378 916.814 165.907C916.814 165.907 910.152 165.443 908.867 167.762C907.642 169.962 909.524 179.328 911.317 180.734V180.719Z" fill="#8C91BE"/>
<path d="M765.013 65.9153L766.745 76.9573L770.405 76.3738C772.123 76.1044 773.303 74.3988 773.004 72.5884L772.302 68.1446C772.018 66.3192 770.39 65.0624 768.657 65.3317L764.998 65.9153H765.013Z" fill="#8C91BE"/>
<path d="M750.451 78.7976C751.945 80.0993 762.356 77.1667 762.356 77.1667L760.624 66.1247C760.624 66.1247 758.727 65.4065 757.92 63.6559C757.128 61.9203 755.978 59.7059 754.708 60.2895C753.439 60.873 753.543 64.7482 755.56 66.9177C755.56 66.9177 750.138 66.2593 748.987 68.0997C747.897 69.8353 749.047 77.5707 750.436 78.7976H750.451Z" fill="#8C91BE"/>
<path d="M746.408 116.113H538.465C530.384 116.113 523.842 122.517 523.842 130.387V516.768C523.842 524.653 530.384 531.042 538.465 531.042H746.408C754.489 531.042 761.047 524.653 761.047 516.768V130.387C761.047 122.502 754.489 116.113 746.408 116.113Z" fill="#171C47"/>
<path d="M752.966 104.473H530.638C522.423 104.473 515.775 111.31 515.775 119.734V526.793C515.775 535.231 522.423 542.069 530.638 542.069H752.966C761.181 542.069 767.828 535.231 767.828 526.793V119.734C767.828 111.295 761.181 104.473 752.966 104.473ZM540.676 531.042C532.804 531.042 526.426 524.653 526.426 516.768V130.387C526.426 122.502 532.804 116.113 540.691 116.113H620.83C621.875 116.113 622.712 116.951 622.757 117.998C623.175 128.083 631.689 136.297 641.936 136.297C652.183 136.297 660.683 128.098 661.116 117.998C661.161 116.951 661.982 116.113 663.028 116.113H743.182C747.857 116.113 752.01 118.357 754.609 121.844C754.893 122.203 755.147 122.592 755.386 122.981C755.625 123.37 755.849 123.774 756.043 124.193C756.237 124.612 756.431 125.045 756.581 125.479C756.745 125.913 756.879 126.362 756.999 126.826C757.298 127.963 757.447 129.16 757.447 130.387V516.768C757.447 518.01 757.298 519.192 756.999 520.344C756.879 520.793 756.745 521.242 756.581 521.69C756.416 522.124 756.237 522.558 756.043 522.962C755.849 523.381 755.625 523.785 755.386 524.174C754.788 525.147 754.086 526.059 753.264 526.867C752.622 527.526 751.92 528.109 751.158 528.603C750.591 528.992 749.993 529.336 749.381 529.635C748.768 529.935 748.111 530.204 747.454 530.413C746.109 530.832 744.69 531.057 743.212 531.057H540.706L540.676 531.042Z" fill="#222A74"/>
<path d="M631.286 119.913C631.286 114.033 636.051 109.26 641.936 109.26C647.822 109.26 652.587 114.033 652.587 119.913C652.587 125.794 647.822 130.581 641.936 130.581C636.051 130.581 631.286 125.809 631.286 119.913Z" fill="white"/>
<path d="M634.02 119.913C634.02 115.545 637.56 111.999 641.921 111.999C646.283 111.999 649.823 115.545 649.823 119.913C649.823 124.282 646.283 127.828 641.921 127.828C637.56 127.828 634.02 124.282 634.02 119.913Z" fill="#203794"/>
<path d="M582.68 385.67H554.463C550.924 385.67 548.055 388.544 548.055 392.089V415.714C548.055 419.259 550.924 422.133 554.463 422.133H582.68C586.219 422.133 589.088 419.259 589.088 415.714V392.089C589.088 388.544 586.219 385.67 582.68 385.67Z" fill="#FFCC98"/>
<path d="M631.928 385.67H603.711C600.172 385.67 597.303 388.544 597.303 392.089V415.714C597.303 419.259 600.172 422.133 603.711 422.133H631.928C635.467 422.133 638.336 419.259 638.336 415.714V392.089C638.336 388.544 635.467 385.67 631.928 385.67Z" fill="#8C91BE"/>
<path d="M687.192 385.67H658.975C655.436 385.67 652.567 388.544 652.567 392.089V415.714C652.567 419.259 655.436 422.133 658.975 422.133H687.192C690.731 422.133 693.6 419.259 693.6 415.714V392.089C693.6 388.544 690.731 385.67 687.192 385.67Z" fill="#FFCC98"/>
<path d="M736.455 385.67H708.238C704.699 385.67 701.83 388.544 701.83 392.089V415.714C701.83 419.259 704.699 422.133 708.238 422.133H736.455C739.994 422.133 742.863 419.259 742.863 415.714V392.089C742.863 388.544 739.994 385.67 736.455 385.67Z" fill="#FFCC98"/>
<path d="M582.68 428.925H554.463C550.924 428.925 548.055 431.799 548.055 435.344V458.969C548.055 462.514 550.924 465.388 554.463 465.388H582.68C586.219 465.388 589.088 462.514 589.088 458.969V435.344C589.088 431.799 586.219 428.925 582.68 428.925Z" fill="#8C91BE"/>
<path d="M631.928 428.925H603.711C600.172 428.925 597.303 431.799 597.303 435.344V458.969C597.303 462.514 600.172 465.388 603.711 465.388H631.928C635.467 465.388 638.336 462.514 638.336 458.969V435.344C638.336 431.799 635.467 428.925 631.928 428.925Z" fill="#FFCC98"/>
<path d="M687.192 428.925H658.975C655.436 428.925 652.567 431.799 652.567 435.344V458.969C652.567 462.514 655.436 465.388 658.975 465.388H687.192C690.731 465.388 693.6 462.514 693.6 458.969V435.344C693.6 431.799 690.731 428.925 687.192 428.925Z" fill="#8C91BE"/>
<path d="M736.455 428.925H708.238C704.699 428.925 701.83 431.799 701.83 435.344V458.969C701.83 462.514 704.699 465.388 708.238 465.388H736.455C739.994 465.388 742.863 462.514 742.863 458.969V435.344C742.863 431.799 739.994 428.925 736.455 428.925Z" fill="#FFCC98"/>
<path d="M637.425 116.113C637.425 115.17 638.187 114.392 639.143 114.392C640.099 114.392 640.861 115.156 640.861 116.113C640.861 117.071 640.099 117.834 639.143 117.834C638.187 117.834 637.425 117.071 637.425 116.113Z" fill="white"/>
<path d="M725.152 241.914H558.571C552.763 241.914 548.055 246.63 548.055 252.448V367.536C548.055 373.353 552.763 378.069 558.571 378.069H725.152C730.96 378.069 735.668 373.353 735.668 367.536V252.448C735.668 246.63 730.96 241.914 725.152 241.914Z" fill="#FFCC98"/>
<path d="M572.627 346.499L606.296 300.117C608.088 297.648 611.808 297.738 613.481 300.296L642.16 344.24C643.953 346.978 648.001 346.858 649.614 344.001L656.082 332.555C657.755 329.592 662.012 329.592 663.685 332.555L669.167 342.28C670.975 345.482 675.68 345.153 677.024 341.726L692.111 303.438C693.605 299.653 698.997 299.788 700.312 303.633L715.219 347.666C716.175 350.509 714.069 353.442 711.081 353.442H576.137C572.567 353.442 570.506 349.387 572.612 346.499H572.627Z" fill="white"/>
<path d="M658.938 296.49C665.431 293.795 668.515 286.338 665.825 279.834C663.135 273.329 655.691 270.241 649.197 272.935C642.703 275.629 639.62 283.086 642.309 289.591C644.999 296.095 652.444 299.184 658.938 296.49Z" fill="white"/>
<path d="M611.36 279.245C611.121 279.245 610.897 279.275 610.673 279.319C610.687 279.14 610.702 278.975 610.702 278.796C610.702 275.983 608.432 273.709 605.624 273.709C603.234 273.709 601.232 275.369 600.694 277.599C600.157 277.105 599.44 276.791 598.648 276.791C597.543 276.791 596.587 277.389 596.064 278.272C595.556 278.048 595.003 277.928 594.421 277.928C592.12 277.928 590.268 279.783 590.268 282.087C590.268 284.392 592.12 286.247 594.421 286.247C595.392 286.247 596.288 285.918 596.99 285.349C598.349 286.486 600.62 287.234 603.189 287.234C605.594 287.234 607.73 286.576 609.119 285.559C609.731 286.052 610.508 286.352 611.36 286.352C613.316 286.352 614.915 284.766 614.915 282.791C614.915 280.816 613.331 279.23 611.36 279.23V279.245Z" fill="white"/>
<path d="M705.789 279.245C705.55 279.245 705.326 279.275 705.101 279.319C705.116 279.14 705.131 278.975 705.131 278.796C705.131 275.983 702.861 273.709 700.053 273.709C697.663 273.709 695.661 275.369 695.123 277.599C694.586 277.105 693.869 276.791 693.077 276.791C691.972 276.791 691.016 277.389 690.493 278.272C689.985 278.048 689.432 277.928 688.85 277.928C686.564 277.928 684.697 279.783 684.697 282.087C684.697 284.392 686.549 286.247 688.85 286.247C689.821 286.247 690.717 285.918 691.419 285.349C692.778 286.486 695.049 287.234 697.618 287.234C700.023 287.234 702.159 286.576 703.548 285.559C704.16 286.052 704.937 286.352 705.789 286.352C707.745 286.352 709.344 284.766 709.344 282.791C709.344 280.816 707.76 279.23 705.789 279.23V279.245Z" fill="white"/>
<path d="M552.897 479.871C548.864 479.871 545.593 483.148 545.593 487.188C545.593 488.594 545.996 489.911 546.668 491.018L545.04 494.878L549.656 493.741C550.627 494.22 551.732 494.504 552.897 494.504C556.93 494.504 560.201 491.228 560.201 487.188C560.201 483.148 556.93 479.871 552.897 479.871Z" fill="#8C91BE"/>
<path d="M713.471 483.477H576.406C575.585 483.477 574.912 482.804 574.912 481.981C574.912 481.158 575.585 480.485 576.406 480.485H713.471C714.293 480.485 714.965 481.158 714.965 481.981C714.965 482.804 714.293 483.477 713.471 483.477Z" fill="#8C91BE"/>
<path d="M631.869 492.08H576.406C575.585 492.08 574.912 491.407 574.912 490.584C574.912 489.761 575.585 489.088 576.406 489.088H631.869C632.69 489.088 633.362 489.761 633.362 490.584C633.362 491.407 632.69 492.08 631.869 492.08Z" fill="#8C91BE"/>
<path d="M660.86 492.08H644.399C643.577 492.08 642.905 491.407 642.905 490.584C642.905 489.761 643.577 489.088 644.399 489.088H660.86C661.681 489.088 662.353 489.761 662.353 490.584C662.353 491.407 661.681 492.08 660.86 492.08Z" fill="#8C91BE"/>
<path d="M552.897 503.766C548.864 503.766 545.593 507.043 545.593 511.082C545.593 512.489 545.996 513.805 546.668 514.913L545.04 518.773L549.656 517.636C550.627 518.114 551.732 518.399 552.897 518.399C556.93 518.399 560.201 515.122 560.201 511.082C560.201 507.043 556.93 503.766 552.897 503.766Z" fill="#8C91BE"/>
<path d="M713.471 507.372H576.406C575.585 507.372 574.912 506.698 574.912 505.875C574.912 505.053 575.585 504.379 576.406 504.379H713.471C714.293 504.379 714.965 505.053 714.965 505.875C714.965 506.698 714.293 507.372 713.471 507.372Z" fill="#8C91BE"/>
<path d="M631.869 515.975H576.406C575.585 515.975 574.912 515.302 574.912 514.479C574.912 513.656 575.585 512.982 576.406 512.982H631.869C632.69 512.982 633.362 513.656 633.362 514.479C633.362 515.302 632.69 515.975 631.869 515.975Z" fill="#8C91BE"/>
<path d="M660.86 515.975H644.399C643.577 515.975 642.905 515.302 642.905 514.479C642.905 513.656 643.577 512.982 644.399 512.982H660.86C661.681 512.982 662.353 513.656 662.353 514.479C662.353 515.302 661.681 515.975 660.86 515.975Z" fill="#8C91BE"/>
<path d="M715.948 208.988C733.32 208.696 747.166 194.354 746.875 176.954C746.584 159.554 732.265 145.685 714.894 145.976C697.523 146.268 683.676 160.61 683.967 178.01C684.259 195.41 698.577 209.279 715.948 208.988Z" fill="#FFCC98"/>
<path d="M714.945 180.824C721.685 180.824 727.149 175.351 727.149 168.6C727.149 161.849 721.685 156.376 714.945 156.376C708.205 156.376 702.741 161.849 702.741 168.6C702.741 175.351 708.205 180.824 714.945 180.824Z" fill="white"/>
<path d="M726.148 180.929C725.162 180.166 723.788 180.181 722.832 180.974C720.726 182.694 718.037 183.727 715.11 183.727C712.182 183.727 709.672 182.754 707.596 181.138C706.61 180.36 705.221 180.375 704.265 181.198C701.8 183.308 700.307 186.36 700.307 190.325V190.684C700.307 192.734 701.965 194.395 704.011 194.395H726.835C728.882 194.395 730.54 192.734 730.54 190.684V190.325C730.54 186.196 728.867 183.053 726.148 180.929Z" fill="white"/>
<path d="M665.968 153.788C659.291 152.172 659.067 158.306 659.067 158.306C659.067 158.306 658.783 152.217 652.106 153.788C645.354 155.374 647.266 166.879 656.214 171.263C657.991 172.131 660.068 172.131 661.845 171.263C670.823 166.894 672.839 155.448 665.953 153.773L665.968 153.788Z" fill="white"/>
<path d="M605.907 156.077V169.363H601.262C599.081 169.363 597.303 167.583 597.303 165.398V160.042C597.303 157.857 599.081 156.077 601.262 156.077H605.907Z" fill="#8C91BE"/>
<path d="M622.712 169.079C621.114 170.889 607.67 169.378 607.67 169.378V156.092C607.67 156.092 610.135 153.698 610.792 151.483C611.449 149.299 612.032 146.127 613.72 146.576C615.407 147.025 616.154 153.144 614.078 156.077C614.078 156.077 620.65 154.296 622.443 156.241C624.131 158.082 624.22 167.373 622.727 169.064L622.712 169.079Z" fill="#8C91BE"/>
<path d="M735.698 220.997H549.653C549.011 220.997 548.488 220.474 548.488 219.83C548.488 219.187 549.011 218.663 549.653 218.663H735.698C736.34 218.663 736.863 219.187 736.863 219.83C736.863 220.474 736.34 220.997 735.698 220.997Z" fill="#8C91BE"/>
<path d="M735.698 228.852H549.653C549.011 228.852 548.488 228.329 548.488 227.685C548.488 227.042 549.011 226.518 549.653 226.518H735.698C736.34 226.518 736.863 227.042 736.863 227.685C736.863 228.329 736.34 228.852 735.698 228.852Z" fill="#8C91BE"/>
<path d="M612.554 177.637H596.81C596.347 177.637 595.959 177.263 595.959 176.784C595.959 176.321 596.332 175.932 596.81 175.932H612.554C613.017 175.932 613.406 176.306 613.406 176.784C613.406 177.248 613.032 177.637 612.554 177.637Z" fill="#8C91BE"/>
<path d="M622.548 177.637H617.2C616.737 177.637 616.349 177.263 616.349 176.784C616.349 176.321 616.722 175.932 617.2 175.932H622.548C623.011 175.932 623.399 176.306 623.399 176.784C623.399 177.248 623.026 177.637 622.548 177.637Z" fill="#8C91BE"/>
<path d="M661.397 177.637H645.653C645.19 177.637 644.802 177.263 644.802 176.784C644.802 176.321 645.175 175.932 645.653 175.932H661.397C661.86 175.932 662.249 176.306 662.249 176.784C662.249 177.248 661.875 177.637 661.397 177.637Z" fill="white"/>
<path d="M674.39 177.637H669.043C668.58 177.637 668.191 177.263 668.191 176.784C668.191 176.321 668.565 175.932 669.043 175.932H674.39C674.853 175.932 675.242 176.306 675.242 176.784C675.242 177.248 674.868 177.637 674.39 177.637Z" fill="white"/>
<path d="M674.049 186.375H670.868C670.688 186.375 670.539 186.465 670.449 186.599H669.717C668.164 186.599 666.894 187.871 666.894 189.427V189.562L645.803 191.402L646.654 201.741H667.029C667.477 202.429 667.522 203.282 667.148 204.03C666.745 204.808 665.983 205.272 665.117 205.272H649.358L648.238 207.636C648.238 207.636 648.118 207.621 648.058 207.621C647.521 207.621 647.087 208.055 647.087 208.594C647.087 209.132 647.521 209.566 648.058 209.566C648.596 209.566 649.029 209.132 649.029 208.594C649.029 208.324 648.925 208.085 648.745 207.92L649.164 207.038H666.192L666.79 207.995C666.611 208.175 666.506 208.414 666.506 208.683C666.506 209.222 666.939 209.656 667.477 209.656C668.015 209.656 668.448 209.222 668.448 208.683C668.448 208.145 668.015 207.711 667.477 207.711C667.417 207.711 667.372 207.711 667.327 207.711L666.058 205.691C666.745 205.452 667.327 204.958 667.671 204.285C668.149 203.342 668.074 202.22 667.477 201.352V190.13V189.427C667.477 188.185 668.493 187.168 669.732 187.168H670.464C670.554 187.303 670.718 187.392 670.883 187.392H674.064C674.348 187.392 674.572 187.168 674.572 186.884C674.572 186.599 674.348 186.375 674.064 186.375H674.049ZM649.403 206.499L649.716 205.841H665.117C665.236 205.841 665.341 205.841 665.445 205.826L665.864 206.499H649.388H649.403ZM662.757 201.158L662.697 199.272L664.743 199.198L664.803 201.158H662.757ZM660.411 201.158L660.352 199.362L662.398 199.287L662.458 201.158H660.411ZM658.066 201.158L658.007 199.437L660.053 199.362L660.113 201.158H658.066ZM655.721 201.158L655.661 199.527L657.708 199.452L657.768 201.158H655.721ZM653.376 201.158L653.316 199.601L655.363 199.527L655.422 201.158H653.376ZM651.031 201.158L650.986 199.691L653.032 199.616L653.092 201.158H651.046H651.031ZM648.686 201.158L648.641 199.766L650.687 199.691L650.732 201.158H648.686ZM646.714 195.292L646.565 193.407L648.118 193.347L648.178 195.233L646.714 195.277V195.292ZM648.193 195.502L648.252 197.387L646.893 197.432L646.744 195.547L648.193 195.502ZM646.908 197.686L648.267 197.641L648.327 199.527L647.072 199.572L646.923 197.686H646.908ZM650.403 191.567L650.448 193.018L648.402 193.093L648.357 191.746L650.403 191.567ZM652.749 191.357L652.808 192.928L650.762 193.003L650.717 191.537L652.764 191.357H652.749ZM655.094 191.148L655.154 192.839L653.107 192.913L653.047 191.327L655.094 191.148ZM657.439 190.938L657.499 192.749L655.452 192.824L655.393 191.118L657.439 190.938ZM659.784 190.729L659.844 192.659L657.797 192.734L657.738 190.909L659.784 190.729ZM662.129 190.519L662.204 192.569L660.158 192.644L660.098 190.699L662.144 190.519H662.129ZM664.474 190.31L664.549 192.48L662.503 192.554L662.428 190.49L664.474 190.31ZM664.624 194.888L664.684 196.774L662.637 196.848L662.577 194.963L664.624 194.888ZM662.577 194.709L662.518 192.824L664.564 192.749L664.624 194.634L662.577 194.709ZM664.698 197.028L664.758 198.913L662.712 198.988L662.652 197.103L664.698 197.028ZM662.279 194.978L662.338 196.863L660.292 196.938L660.232 195.053L662.279 194.978ZM660.232 194.799L660.172 192.913L662.219 192.839L662.279 194.724L660.232 194.799ZM662.353 197.118L662.413 199.003L660.367 199.078L660.307 197.193L662.353 197.118ZM659.933 195.053L659.993 196.938L657.947 197.013L657.887 195.128L659.933 195.053ZM657.887 194.873L657.827 192.988L659.874 192.913L659.933 194.799L657.887 194.873ZM660.008 197.193L660.068 199.078L658.021 199.153L657.962 197.267L660.008 197.193ZM657.588 195.143L657.648 197.028L655.602 197.103L655.542 195.218L657.588 195.143ZM655.542 194.963L655.482 193.078L657.529 193.003L657.588 194.888L655.542 194.963ZM657.663 197.282L657.723 199.168L655.676 199.242L655.617 197.357L657.663 197.282ZM655.243 195.233L655.303 197.118L653.256 197.193L653.197 195.307L655.243 195.233ZM653.197 195.053L653.137 193.168L655.183 193.093L655.243 194.978L653.197 195.053ZM653.271 197.447L655.318 197.372L655.378 199.257L653.331 199.332L653.271 197.447ZM650.852 195.397L652.898 195.322L652.958 197.208L650.911 197.282L650.852 195.397ZM650.852 195.143L650.792 193.258L652.838 193.183L652.898 195.068L650.852 195.143ZM652.973 197.462L653.032 199.347L650.986 199.422L650.926 197.537L652.973 197.462ZM650.553 195.412L650.613 197.297L648.566 197.372L648.506 195.487L650.553 195.412ZM648.506 195.233L648.447 193.347L650.493 193.273L650.553 195.158L648.506 195.233ZM648.581 197.626L650.628 197.552L650.687 199.437L648.641 199.512L648.581 197.626ZM666.924 196.729L664.982 196.804L664.923 194.918L666.924 194.844V196.729ZM666.924 194.589L664.908 194.664L664.848 192.779L666.924 192.704V194.589ZM664.997 197.058L666.924 196.983V198.868L665.057 198.928L664.997 197.043V197.058ZM666.924 192.45L664.848 192.524L664.773 190.325L666.924 190.13V192.435V192.45ZM648.088 191.776L648.133 193.108L646.565 193.168L646.46 191.926L648.088 191.791V191.776ZM647.117 199.826L648.372 199.781L648.417 201.158H647.237L647.132 199.826H647.117ZM665.147 201.158L665.087 199.183L666.939 199.123V201.158H665.147Z" fill="#8C91BE"/>
<path d="M633.945 194.021H582.754C582.247 194.021 581.843 193.617 581.843 193.108C581.843 192.599 582.247 192.195 582.754 192.195H633.945C634.453 192.195 634.856 192.599 634.856 193.108C634.856 193.617 634.453 194.021 633.945 194.021Z" fill="#8C91BE"/>
<path d="M633.945 207.412H582.754C582.247 207.412 581.843 207.008 581.843 206.499C581.843 205.99 582.247 205.586 582.754 205.586H633.945C634.453 205.586 634.856 205.99 634.856 206.499C634.856 207.008 634.453 207.412 633.945 207.412Z" fill="#8C91BE"/>
<path d="M602.905 200.619H593.241C592.733 200.619 592.329 200.215 592.329 199.706C592.329 199.197 592.733 198.794 593.241 198.794H602.905C603.413 198.794 603.816 199.197 603.816 199.706C603.816 200.215 603.413 200.619 602.905 200.619Z" fill="#8C91BE"/>
<path d="M633.736 200.619H606.281C605.773 200.619 605.37 200.215 605.37 199.706C605.37 199.197 605.773 198.794 606.281 198.794H633.736C634.244 198.794 634.647 199.197 634.647 199.706C634.647 200.215 634.244 200.619 633.736 200.619Z" fill="#8C91BE"/>
<path d="M489.73 447.433H463.604C463.604 447.433 453.521 491.467 456.135 499.696C460.124 512.294 468.474 524.952 469.519 533.136C469.952 536.458 468.294 540.333 468.294 540.333C470.595 540.872 473.836 538.119 477.003 535.575L474.792 531.969C472.91 525.58 469.161 503.93 468.369 499.846C467.473 495.252 476.839 467.647 476.839 467.647C476.39 488.579 478.601 523.037 478.81 535.336C478.81 535.336 478.273 543.759 481.185 543.864C484.158 543.969 483.755 535.156 483.755 535.156C486.443 502.554 498.528 465.942 489.715 447.433H489.73Z" fill="#F1CCCD"/>
<path d="M469.474 407.545C469.474 407.545 461.334 420.801 454.806 420.801C449.204 420.801 437.314 402.398 437.314 402.398C437.314 402.398 431.743 403.071 429.681 394.228C428.427 388.857 436.717 398.074 437.494 396.757C438.121 395.71 435.313 390.802 438.24 391.356C440.541 391.79 442.498 399.031 442.498 399.031C442.498 399.031 452.237 409.505 453.447 409.235C454.373 409.041 466.009 394.154 466.009 394.154L469.459 407.53L469.474 407.545Z" fill="#F1CCCD"/>
<path d="M469.863 379.94C468.742 377.546 466.696 377.246 466.756 373.072C466.8 369.107 470.923 367.237 473.567 367.282C475.225 367.312 476.734 368.269 478.377 368.523C480.08 368.793 481.827 368.284 483.545 368.359C487.548 368.553 490.969 372.473 490.641 376.468C490.461 378.683 489.326 381.047 490.372 383.007C491.432 385.012 494.076 385.371 496.212 386.119C497.945 386.717 499.573 387.78 500.529 389.336C501.485 390.907 501.619 393.031 500.559 394.543C499.812 395.62 498.498 396.353 498.184 397.64C497.796 399.211 499.095 400.647 500.2 401.829C501.321 403.011 502.411 404.717 501.619 406.138C500.977 407.29 499.424 407.53 498.094 407.44C496.78 407.35 495.361 407.081 494.196 407.694C492.926 408.338 492.328 409.804 491.313 410.791C490.148 411.914 488.445 412.392 486.831 412.258C485.218 412.138 483.68 411.465 482.32 410.567C479.258 408.562 476.988 405.375 476.106 401.829C474.822 396.757 476.226 391.041 473.746 386.433L469.878 379.925L469.863 379.94Z" fill="#171C47"/>
<path d="M489.744 431.738H463.619C463.619 431.738 454.985 461.139 454.701 477.118C454.701 477.941 455.403 478.6 456.225 478.495C471.073 476.595 480.274 481.966 492.358 479.228C493.539 478.959 494.39 477.941 494.48 476.729C495.689 458.58 494.748 442.227 489.759 431.738H489.744Z" fill="#222A74"/>
<path d="M489.744 431.738H484.8L488.236 432.023C492.343 442.885 491.91 459.269 489.207 477.253C489.027 478.45 488.086 479.393 486.891 479.557C484.86 479.841 482.918 479.901 481.036 479.826C484.696 480.141 488.37 480.111 492.343 479.213C493.524 478.944 494.375 477.926 494.465 476.714C495.675 458.565 494.733 442.212 489.729 431.723L489.744 431.738Z" fill="#171C47"/>
<path d="M463.47 432.95C471.745 434.82 480.155 433.145 489.132 432.561C490.088 432.501 490.91 431.559 490.581 430.661C483.785 412.228 487.519 406.692 488.803 394.737L478.303 388.857L472.686 388.992C472.686 388.992 463.679 393.346 461.871 401.036C458.764 414.203 469.833 411.165 462.902 431.993C462.768 432.412 463.037 432.845 463.47 432.95Z" fill="#C76A0B"/>
<path d="M489.147 432.561C488.714 432.591 488.28 432.621 487.862 432.651C488.295 432.277 488.534 431.708 488.325 431.155C485.801 424.287 482.201 409.31 482.47 403.505C482.918 393.72 488.803 394.902 488.803 394.902C487.504 406.737 483.829 412.303 490.596 430.661C490.924 431.559 490.118 432.501 489.162 432.561H489.147Z" fill="#904D08"/>
<path d="M486.473 410.612L492.657 415.4L473.343 415.684C473.343 415.684 466.054 409.385 464.112 415.415C462.021 421.848 469.534 422.327 471.76 421.519C471.76 421.519 500.35 428.028 503.472 420.816C506.609 413.574 489.52 395.5 489.52 395.5C485.741 390.218 477.675 402.532 486.503 410.627L486.473 410.612Z" fill="#F1CCCD"/>
<path d="M478.302 388.872C478.108 389.036 477.899 389.201 477.69 389.366C474.568 391.864 471.805 392.807 472.686 389.007L472.791 386.762L472.925 383.889L475.449 383.845L477.466 383.815C477.63 384.383 478.093 387.884 478.287 388.872H478.302Z" fill="#F1CCCD"/>
<path d="M477.69 389.366C477.72 388.243 477.6 386.463 476.45 386.762C474.822 387.196 472.776 386.762 472.776 386.762L474.21 384.279L475.449 383.845L477.466 383.815C477.63 384.383 478.093 387.884 478.288 388.872C478.093 389.036 477.884 389.201 477.675 389.366H477.69Z" fill="#F1BABB"/>
<path d="M470.849 373.087C470.64 372.862 470.251 372.982 470.206 373.296C469.863 375.765 468.145 384.024 471.625 385.685C474.688 387.151 478.078 384.967 479.632 380.044C481.394 379.012 482.38 377.576 481.469 376.274C480.274 374.583 478.512 377.456 478.512 377.456C478.512 377.456 474.658 377.127 470.849 373.102V373.087Z" fill="#F1CCCD"/>
<path d="M474.792 531.969C474.792 531.969 477.989 532.732 477.003 535.575C476.017 538.403 471.073 544.328 467.861 544.313C466.323 544.313 468.294 540.318 468.294 540.318C470.938 540.363 473.642 537.146 474.792 531.954V531.969Z" fill="#222A74"/>
<path d="M478.825 535.336C478.825 535.336 477.331 543.864 481.2 543.864C486.189 543.864 483.769 535.156 483.769 535.156C483.411 539.346 479.781 540.423 478.81 535.336H478.825Z" fill="#222A74"/>
<path d="M960.254 479.946H798.139C797.885 479.841 797.631 479.722 797.377 479.602C797.123 479.482 796.854 479.363 796.6 479.228C796.391 479.123 796.182 479.004 795.973 478.884C795.749 478.764 795.54 478.629 795.316 478.495C795.136 478.39 794.957 478.27 794.778 478.151C794.584 478.031 794.405 477.896 794.225 477.777C794.061 477.657 793.897 477.552 793.747 477.433C793.583 477.313 793.419 477.178 793.254 477.058C793.105 476.939 792.971 476.834 792.836 476.714C792.687 476.595 792.537 476.46 792.388 476.34C792.268 476.236 792.134 476.116 792.015 475.996C791.88 475.876 791.746 475.742 791.596 475.607C791.537 475.547 791.477 475.487 791.417 475.443C791.357 475.383 791.312 475.338 791.253 475.278C791.133 475.158 791.014 475.024 790.894 474.904C790.79 474.799 790.685 474.679 790.581 474.56C790.476 474.44 790.357 474.305 790.252 474.186C790.147 474.081 790.058 473.961 789.968 473.842C789.864 473.722 789.759 473.587 789.654 473.453C789.565 473.348 789.475 473.228 789.401 473.108C789.311 472.989 789.206 472.854 789.132 472.734C789.042 472.615 788.967 472.51 788.893 472.39C788.803 472.271 788.728 472.136 788.639 472.016C788.564 471.897 788.489 471.792 788.43 471.672C788.355 471.552 788.28 471.418 788.191 471.283C788.116 471.163 788.056 471.059 787.996 470.939H787.967V450.306H787.981C788.041 450.187 788.116 450.082 788.176 449.962C788.25 449.827 788.325 449.708 788.415 449.573C788.489 449.453 788.549 449.349 788.624 449.229C788.698 449.109 788.788 448.975 788.878 448.855C788.952 448.735 789.027 448.63 789.117 448.511C789.206 448.376 789.296 448.256 789.386 448.137C789.475 448.017 789.55 447.912 789.64 447.793C789.744 447.658 789.849 447.538 789.938 447.404C790.028 447.284 790.132 447.179 790.222 447.059C790.327 446.925 790.446 446.805 790.551 446.685C790.655 446.566 790.76 446.446 790.864 446.341C790.984 446.207 791.103 446.087 791.223 445.967C791.327 445.848 791.447 445.743 791.566 445.623C791.701 445.503 791.835 445.369 791.97 445.249C792.089 445.129 792.209 445.025 792.343 444.905C792.493 444.77 792.642 444.651 792.791 444.516C792.926 444.396 793.06 444.291 793.21 444.172C793.374 444.037 793.538 443.917 793.702 443.798C793.852 443.678 794.016 443.573 794.18 443.454C794.36 443.319 794.554 443.199 794.733 443.08C794.912 442.96 795.092 442.855 795.271 442.735C795.48 442.601 795.704 442.481 795.928 442.346C796.137 442.227 796.346 442.107 796.556 442.002C796.809 441.868 797.048 441.748 797.317 441.628C797.571 441.509 797.825 441.389 798.079 441.284H959.94C959.91 441.389 959.866 441.509 959.821 441.628C959.776 441.748 959.746 441.868 959.701 442.002C959.671 442.107 959.627 442.227 959.597 442.346C959.567 442.466 959.522 442.601 959.477 442.735C959.447 442.84 959.418 442.96 959.388 443.08C959.358 443.199 959.313 443.334 959.283 443.454C959.253 443.558 959.223 443.678 959.193 443.798C959.164 443.917 959.134 444.052 959.104 444.172C959.074 444.277 959.059 444.396 959.029 444.516C958.999 444.636 958.969 444.77 958.94 444.905C958.91 445.01 958.895 445.129 958.865 445.249C958.835 445.369 958.82 445.503 958.79 445.623C958.76 445.743 958.745 445.848 958.715 445.967C958.686 446.087 958.671 446.222 958.641 446.341C958.611 446.446 958.596 446.566 958.566 446.685C958.551 446.805 958.521 446.94 958.491 447.059C958.477 447.164 958.462 447.284 958.432 447.404C958.417 447.523 958.387 447.658 958.372 447.793C958.357 447.897 958.342 448.017 958.327 448.137C958.312 448.256 958.282 448.391 958.267 448.511C958.252 448.63 958.237 448.735 958.223 448.855C958.208 448.975 958.193 449.109 958.178 449.229C958.178 449.334 958.148 449.453 958.133 449.573C958.118 449.693 958.103 449.827 958.088 449.962C958.088 450.067 958.058 450.187 958.058 450.306C958.043 450.426 958.028 450.561 958.013 450.68C958.013 450.785 957.998 450.905 957.984 451.024C957.969 451.144 957.954 451.279 957.954 451.399C957.954 451.503 957.939 451.623 957.924 451.743C957.924 451.862 957.909 451.997 957.894 452.132C957.894 452.251 957.879 452.356 957.864 452.476C957.864 452.595 957.849 452.73 957.834 452.85C957.834 452.97 957.819 453.074 957.819 453.194C957.819 453.314 957.804 453.448 957.789 453.568C957.789 453.688 957.774 453.792 957.774 453.912C957.774 454.032 957.759 454.166 957.759 454.301C957.759 454.421 957.745 454.526 957.745 454.645C957.745 454.765 957.73 454.9 957.73 455.019C957.73 455.139 957.715 455.244 957.715 455.363C957.715 455.483 957.715 455.618 957.7 455.752C957.7 455.857 957.7 455.977 957.7 456.097C957.7 456.216 957.7 456.351 957.7 456.471C957.7 456.59 957.7 456.695 957.7 456.815C957.7 456.934 957.7 457.069 957.7 457.189C957.7 457.309 957.7 457.413 957.7 457.533C957.7 457.653 957.7 457.787 957.7 457.922V458.266C957.7 458.386 957.7 458.52 957.7 458.64C957.7 458.76 957.7 458.865 957.7 458.984C957.7 459.104 957.7 459.239 957.7 459.358C957.7 459.463 957.7 459.583 957.7 459.702C957.7 459.837 957.7 459.957 957.7 460.091C957.7 460.196 957.7 460.316 957.7 460.436C957.7 460.555 957.7 460.69 957.715 460.81C957.715 460.929 957.715 461.034 957.715 461.154C957.715 461.273 957.715 461.408 957.715 461.528C957.715 461.648 957.73 461.752 957.73 461.872C957.73 461.992 957.73 462.126 957.745 462.246C957.745 462.366 957.745 462.47 957.759 462.59C957.759 462.725 957.774 462.844 957.774 462.979C957.774 463.084 957.789 463.204 957.804 463.323C957.804 463.443 957.804 463.578 957.819 463.697C957.819 463.817 957.834 463.922 957.849 464.041C957.849 464.161 957.864 464.296 957.879 464.415C957.879 464.52 957.894 464.64 957.909 464.76C957.909 464.894 957.924 465.014 957.939 465.149C957.939 465.268 957.954 465.373 957.969 465.493C957.969 465.612 957.984 465.747 957.998 465.867C957.998 465.987 958.013 466.091 958.028 466.211C958.028 466.331 958.043 466.465 958.058 466.585C958.058 466.705 958.073 466.809 958.088 466.929C958.088 467.049 958.118 467.183 958.133 467.318C958.133 467.438 958.148 467.543 958.163 467.662C958.163 467.782 958.193 467.917 958.208 468.036C958.208 468.156 958.237 468.261 958.237 468.38C958.252 468.515 958.267 468.635 958.282 468.754C958.282 468.874 958.312 468.979 958.327 469.099C958.342 469.218 958.357 469.353 958.372 469.473C958.372 469.592 958.402 469.697 958.417 469.817C958.432 469.951 958.447 470.071 958.462 470.206C958.476 470.311 958.491 470.43 958.506 470.55C958.521 470.67 958.536 470.804 958.551 470.924C958.566 471.044 958.581 471.148 958.596 471.268C958.611 471.388 958.626 471.522 958.656 471.657C958.671 471.777 958.686 471.882 958.701 472.001C958.715 472.121 958.73 472.256 958.76 472.375C958.775 472.495 958.79 472.6 958.805 472.719C958.82 472.839 958.835 472.974 958.865 473.094C958.88 473.213 958.895 473.318 958.925 473.438C958.94 473.572 958.954 473.692 958.984 473.827C958.999 473.931 959.014 474.051 959.029 474.171C959.044 474.291 959.074 474.425 959.104 474.545C959.119 474.665 959.134 474.769 959.164 474.889C959.179 475.009 959.193 475.143 959.238 475.263C959.253 475.383 959.268 475.487 959.298 475.607C959.313 475.742 959.343 475.862 959.373 475.996C959.388 476.116 959.403 476.221 959.432 476.34C959.447 476.46 959.477 476.595 959.507 476.714C959.522 476.834 959.552 476.939 959.567 477.058C959.597 477.178 959.612 477.313 959.642 477.433C959.671 477.552 959.686 477.657 959.716 477.777C959.746 477.896 959.776 478.031 959.791 478.151C959.821 478.27 959.836 478.375 959.866 478.495C959.896 478.629 959.91 478.749 959.94 478.884C959.955 479.004 959.985 479.108 960.015 479.228C960.045 479.348 960.06 479.482 960.09 479.602C960.12 479.722 960.135 479.826 960.164 479.946H960.254Z" fill="#222A74"/>
<path d="M962.734 475.682C963.301 476.25 963.645 477.029 963.645 477.896C963.645 479.617 962.256 481.023 960.523 481.023H803.322C800.439 481.023 797.706 480.44 795.211 479.393C794.957 479.288 794.689 479.168 794.45 479.048C794.196 478.929 793.927 478.809 793.673 478.674C793.464 478.57 793.255 478.45 793.045 478.33C792.821 478.211 792.612 478.076 792.388 477.941C792.209 477.836 792.03 477.717 791.85 477.597C791.656 477.477 791.477 477.343 791.298 477.223C791.133 477.103 790.969 476.999 790.82 476.879C790.655 476.759 790.491 476.625 790.327 476.505C790.177 476.385 790.043 476.28 789.909 476.161C789.759 476.041 789.61 475.906 789.46 475.787C789.341 475.682 789.207 475.562 789.087 475.443C788.953 475.323 788.818 475.188 788.669 475.054C788.609 474.994 788.549 474.934 788.504 474.889C788.445 474.829 788.4 474.784 788.34 474.724C788.221 474.605 788.101 474.47 787.982 474.35C787.877 474.246 787.773 474.126 787.668 474.006C787.563 473.886 787.444 473.752 787.339 473.632C787.235 473.527 787.145 473.408 787.056 473.288C786.951 473.168 786.846 473.034 786.742 472.899C786.652 472.794 786.578 472.675 786.488 472.555C786.398 472.435 786.294 472.3 786.219 472.181C786.129 472.061 786.055 471.956 785.98 471.837C785.89 471.717 785.801 471.582 785.726 471.463C785.651 471.343 785.577 471.238 785.517 471.118C785.442 470.999 785.368 470.864 785.278 470.729C785.203 470.61 785.144 470.505 785.084 470.385C785.084 470.37 785.069 470.355 785.054 470.34C783.351 467.303 782.365 463.802 782.365 460.061C782.365 456.321 783.336 452.82 785.054 449.783C785.054 449.783 785.054 449.768 785.069 449.753C785.129 449.633 785.203 449.528 785.263 449.408C785.338 449.274 785.412 449.154 785.502 449.019C785.577 448.9 785.637 448.795 785.711 448.675C785.786 448.556 785.876 448.421 785.965 448.301C786.04 448.182 786.114 448.077 786.204 447.957C786.294 447.823 786.383 447.703 786.473 447.583C786.563 447.463 786.637 447.359 786.727 447.239C786.831 447.104 786.936 446.985 787.026 446.85C787.115 446.73 787.22 446.626 787.309 446.506C787.414 446.371 787.534 446.251 787.638 446.132C787.743 446.012 787.847 445.892 787.952 445.788C788.071 445.653 788.191 445.533 788.31 445.414C788.415 445.294 788.534 445.189 788.654 445.069C788.788 444.95 788.923 444.815 789.057 444.695C789.177 444.576 789.296 444.471 789.431 444.351C789.58 444.217 789.729 444.097 789.879 443.962C790.013 443.843 790.148 443.738 790.297 443.618C790.461 443.484 790.626 443.364 790.79 443.244C790.939 443.124 791.104 443.02 791.268 442.9C791.447 442.765 791.641 442.646 791.821 442.526C792 442.406 792.179 442.302 792.358 442.182C792.567 442.047 792.792 441.927 793.016 441.793C793.225 441.673 793.434 441.553 793.643 441.449C793.897 441.314 794.136 441.194 794.405 441.075C794.659 440.955 794.913 440.835 795.167 440.73C797.676 439.668 800.439 439.085 803.337 439.085H960.538C961.404 439.085 962.181 439.429 962.749 439.997C963.316 440.566 963.66 441.344 963.66 442.212C963.66 443.947 962.271 445.339 960.538 445.339H803.89C803.367 445.339 802.844 445.369 802.336 445.414C801.575 445.488 800.843 445.623 800.111 445.788C799.722 445.892 799.319 445.997 798.931 446.132C798.587 446.251 798.244 446.371 797.9 446.506C797.646 446.611 797.392 446.73 797.153 446.85C796.899 446.97 796.645 447.089 796.391 447.239C796.197 447.344 796.003 447.448 795.809 447.583C795.6 447.703 795.406 447.823 795.211 447.957C795.047 448.062 794.883 448.182 794.718 448.301C794.539 448.421 794.39 448.556 794.225 448.675C794.091 448.78 793.957 448.9 793.807 449.019C793.658 449.139 793.508 449.274 793.374 449.408C793.255 449.513 793.135 449.633 793.016 449.753C792.881 449.872 792.762 450.007 792.642 450.127C792.538 450.246 792.433 450.351 792.328 450.471C792.209 450.59 792.104 450.725 792 450.845C791.895 450.95 791.806 451.069 791.731 451.189C791.626 451.309 791.537 451.443 791.432 451.578C791.343 451.698 791.268 451.802 791.178 451.922C791.089 452.042 791.014 452.176 790.939 452.296C790.865 452.416 790.79 452.521 790.73 452.64C790.64 452.76 790.581 452.895 790.506 453.029C790.431 453.149 790.372 453.254 790.327 453.373C790.252 453.493 790.192 453.628 790.133 453.747C790.073 453.867 790.013 453.972 789.968 454.092C789.909 454.211 789.849 454.346 789.804 454.466C789.759 454.585 789.714 454.69 789.67 454.81C789.61 454.944 789.565 455.064 789.52 455.199C789.475 455.304 789.431 455.423 789.401 455.543C789.356 455.663 789.311 455.797 789.281 455.917C789.236 456.037 789.207 456.141 789.177 456.261C789.147 456.381 789.102 456.516 789.072 456.635C789.042 456.74 789.012 456.86 788.997 456.979C788.968 457.099 788.938 457.234 788.923 457.368C788.893 457.473 788.878 457.593 788.863 457.712C788.833 457.832 788.818 457.967 788.803 458.087C788.788 458.206 788.773 458.311 788.758 458.431C788.743 458.55 788.729 458.685 788.729 458.805C788.714 458.924 788.714 459.029 788.699 459.149C788.699 459.269 788.684 459.403 788.684 459.523C788.684 459.628 788.669 459.747 788.684 459.867C788.684 459.927 788.684 459.987 788.684 460.047C788.684 460.121 788.684 460.181 788.684 460.256C788.684 460.376 788.684 460.48 788.684 460.6C788.684 460.735 788.684 460.855 788.699 460.974C788.699 461.094 788.714 461.199 788.729 461.318C788.729 461.453 788.743 461.573 788.758 461.692C788.758 461.812 788.788 461.917 788.803 462.036C788.803 462.171 788.833 462.291 788.863 462.426C788.878 462.545 788.893 462.65 788.923 462.77C788.938 462.889 788.968 463.024 788.997 463.144C789.012 463.263 789.042 463.368 789.072 463.488C789.102 463.622 789.132 463.742 789.177 463.877C789.207 463.997 789.251 464.101 789.281 464.221C789.311 464.356 789.356 464.475 789.401 464.595C789.431 464.715 789.475 464.819 789.52 464.939C789.565 465.074 789.61 465.194 789.67 465.328C789.714 465.448 789.759 465.553 789.804 465.672C789.849 465.807 789.909 465.927 789.983 466.046C790.028 466.166 790.088 466.271 790.148 466.39C790.207 466.525 790.267 466.645 790.342 466.765C790.402 466.884 790.461 466.989 790.521 467.109C790.596 467.243 790.67 467.363 790.745 467.498C790.82 467.617 790.88 467.722 790.954 467.842C791.029 467.976 791.118 468.096 791.208 468.216C791.283 468.336 791.372 468.44 791.462 468.56C791.552 468.695 791.656 468.814 791.746 468.934C791.836 469.054 791.925 469.158 792.015 469.278C792.119 469.413 792.224 469.533 792.343 469.667C792.448 469.787 792.552 469.892 792.657 470.011C792.777 470.131 792.896 470.266 793.03 470.385C793.15 470.505 793.27 470.625 793.389 470.729C793.523 470.864 793.673 470.984 793.822 471.118C793.957 471.238 794.091 471.343 794.24 471.463C794.405 471.597 794.569 471.717 794.748 471.837C794.913 471.956 795.077 472.076 795.241 472.181C795.435 472.315 795.63 472.435 795.839 472.555C796.033 472.675 796.227 472.794 796.436 472.899C796.675 473.034 796.929 473.168 797.198 473.288C797.437 473.408 797.691 473.527 797.96 473.632C798.303 473.767 798.647 473.901 799.005 474.006C799.394 474.141 799.797 474.261 800.215 474.35C800.992 474.545 801.799 474.665 802.62 474.724C803.039 474.769 803.457 474.784 803.89 474.784H960.538C961.404 474.784 962.181 475.128 962.749 475.697L962.734 475.682Z" fill="#87A8F5"/>
<path d="M953.189 439.055H795.645C786.04 439.055 778.272 431.26 778.272 421.654C778.272 412.033 786.055 404.253 795.645 404.253H953.189C962.794 404.253 970.561 412.048 970.561 421.654C970.561 431.274 962.779 439.055 953.189 439.055Z" fill="#171C47"/>
<path d="M805.655 404.238H794.288V439.055H805.655V404.238Z" fill="white"/>
<path d="M823.55 404.238H812.183V439.055H823.55V404.238Z" fill="white"/>
<path d="M901.638 472.151L896.365 467.318L891.107 472.151V451.548H901.638V472.151Z" fill="#A4BDF5"/>
<path d="M961.895 516.738V539.256H896.559C890.36 539.256 885.311 534.214 885.311 528.004C885.311 521.795 890.36 516.738 896.559 516.738H961.895Z" fill="#222A74"/>
<path d="M890.559 516.738C880.745 516.738 873.829 529.381 885.211 539.256H955.895V543.7H771.12C768.476 543.7 766.34 541.56 766.34 538.912V517.082C766.34 514.434 768.476 512.294 771.12 512.294H955.895V516.738H890.559Z" fill="#171C47"/>
<path d="M885.311 528.004C885.311 534.214 890.36 539.256 896.559 539.256H961.895V543.7H896.559C887.91 543.7 880.875 536.652 880.875 528.004C880.875 519.356 887.91 512.294 896.559 512.294H961.895V516.738H896.559C890.36 516.738 885.311 521.795 885.311 528.004Z" fill="#87A8F5"/>
<path d="M836.769 512.294H832.557V543.7H836.769V512.294Z" fill="white"/>
<path d="M826.254 512.294H822.041V543.7H826.254V512.294Z" fill="white"/>
<path d="M900.816 524.788V534.573L905.775 531.116L910.735 534.573V524.788H900.816Z" fill="#A4BDF5"/>
<path d="M845.881 529.68C845.881 524.638 849.959 520.553 854.993 520.553C860.027 520.553 864.105 524.638 864.105 529.68C864.105 534.722 860.027 538.807 854.993 538.807C849.959 538.807 845.881 534.722 845.881 529.68Z" fill="white"/>
<path d="M784.28 485.332V507.85H849.616C855.815 507.85 860.863 502.808 860.863 496.599C860.863 490.39 855.815 485.332 849.616 485.332H784.28Z" fill="#222A74"/>
<path d="M852.601 485.332C862.414 485.332 869.33 497.975 857.948 507.85H787.265V512.294H973.324C975.251 512.294 976.82 510.723 976.82 508.793V484.375C976.82 482.445 975.251 480.874 973.324 480.874H787.265V485.318H852.601V485.332Z" fill="#171C47"/>
<path d="M860.848 496.584C860.848 502.793 855.8 507.835 849.601 507.835H784.265V512.279H849.601C858.249 512.279 865.285 505.232 865.285 496.584C865.285 487.936 858.249 480.874 849.601 480.874H784.265V485.318H849.601C855.8 485.318 860.848 490.375 860.848 496.584Z" fill="#87A8F5"/>
<path d="M909.39 512.294H913.603V480.889H909.39V512.294Z" fill="white"/>
<path d="M919.921 512.294H924.133V480.889H919.921V512.294Z" fill="white"/>
<path d="M845.358 493.382V503.152L840.384 499.696L835.425 503.152V493.382H845.358Z" fill="#A4BDF5"/>
<path d="M879.01 496.584C879.01 491.826 882.864 487.966 887.614 487.966C892.364 487.966 896.218 491.826 896.218 496.584C896.218 501.342 892.364 505.202 887.614 505.202C882.864 505.202 879.01 501.342 879.01 496.584Z" fill="white"/>
<path d="M836.321 421.639C836.321 416.642 840.369 412.587 845.358 412.587C850.347 412.587 854.395 416.642 854.395 421.639C854.395 426.636 850.347 430.691 845.358 430.691C840.369 430.691 836.321 426.636 836.321 421.639Z" fill="white"/>
<path d="M822.959 344.867L825.516 345.875L833.021 326.773L830.463 325.765L822.959 344.867Z" fill="#222A74"/>
<path d="M795.826 338.33L796.648 340.724L799.755 357.676C799.755 357.676 799.322 358.903 800.173 360.549C802.07 364.289 808.389 368.329 811.361 367.76C820.607 365.995 828.793 347.831 828.793 347.831C831.019 346.23 833.155 340.32 831.885 336.879C829.181 329.577 829.137 340.155 825.671 341.382C824.909 341.667 823.102 338.525 822.803 339.811C822.489 341.098 823.983 345.213 823.983 345.213C823.983 345.213 810.599 356.195 810.286 356.225C810.196 356.225 809.524 354.714 808.433 352.559C806.193 348.07 802.13 340.784 797.664 338.824C797.066 338.54 796.439 338.375 795.811 338.315L795.826 338.33Z" fill="#F1CCCD"/>
<path d="M796.648 340.724L796.319 357.9C796.319 357.9 800.337 363.781 801.174 365.426L810.719 354.19C807.313 350.03 799.576 337.821 795.109 335.861L796.648 340.739V340.724Z" fill="#222A74"/>
<path d="M801.682 325.582C801.682 325.582 805.177 321.468 802.339 316.381C799.8 311.832 791.465 311.428 788.701 313.897C783.503 318.505 784.907 326.555 790.882 329.832L801.682 325.582Z" fill="#171C47"/>
<path d="M778.215 345.676C783.085 354.938 780.934 359.786 782.174 367.491C782.891 373.476 786.102 382.708 790.21 389.216C795.363 387.316 805.73 383.486 810.883 381.585L815.588 385.386C813.213 383.934 793.78 370.229 795.841 362.03C799.501 346.574 795.124 335.846 795.124 335.846C795.423 334.919 796.484 331.477 796.782 330.49L791.644 328.545C790.777 330.041 788.851 333.318 787.954 334.844C787.237 336.37 778.962 345.213 778.215 345.676Z" fill="#F1CCCD"/>
<path d="M788.597 386.388C788.761 386.688 788.925 387.002 789.104 387.316C789.448 387.929 789.851 389.007 790.24 389.65C792.42 389.695 794.571 389.171 796.767 388.947C798.291 388.797 799.8 388.603 801.323 388.318C810.271 386.703 813.049 388.049 819.547 382.109C812.825 374.763 803.384 374.194 803.444 361.222C803.549 340.859 795.094 335.846 795.094 335.846C795.453 340.859 792.555 339.512 787.939 334.829C787.551 335.083 780.486 337.971 778.723 342.968C774.869 353.921 778.484 367.85 788.597 386.373V386.388Z" fill="#171C47"/>
<path d="M790.105 331.163C791.898 332.974 794.138 333.961 795.542 334.455L796.767 330.505L791.629 328.56L790.105 331.178V331.163Z" fill="#E3BABB"/>
<path d="M789.538 324.146C789.538 324.146 787.282 322.051 788.402 320.48C789.672 318.67 792.376 322.096 792.376 322.096C795.393 322.545 797.589 321.498 800.457 319.179C801.114 318.64 802.115 319.119 802.1 319.987C802.04 323.533 801.577 330.325 799.098 332.031C797.723 332.974 796.155 332.959 794.676 332.525C791.45 331.552 789.568 324.49 789.538 324.176V324.146Z" fill="#F1CCCD"/>
<path d="M790.105 313.044C790.105 313.044 788.044 308.032 784.265 310.83C780.426 313.658 783.398 317.832 786.296 317.638C789.209 317.458 790.105 313.044 790.105 313.044Z" fill="#171C47"/>
<path d="M801.682 325.582C801.682 325.582 801.01 320.914 800.98 318.864C800.98 318.864 800.651 322.261 795.841 323.907C792.167 325.163 792.585 329.054 792.585 329.054C791.435 325.971 791.868 324.535 792.376 322.081L793.601 318.939C793.601 318.939 796.11 317.817 796.11 317.637C796.11 317.458 801.174 316.56 801.174 316.56L802.772 319.134L801.682 325.567V325.582Z" fill="#222A74"/>
<path d="M801.786 375.092C805.984 374.448 819.905 359.008 822.967 355.581C823.296 355.222 823.774 355.013 824.267 355.058C825.313 355.132 825.94 354.624 828.375 352.23C830.914 349.701 838.577 352.17 833.827 347.936C830.257 344.764 825.507 347.143 820.936 350.12L801.607 364.005L796.439 357.212L792.032 351.422L780.426 343.013C778.006 347.816 780.426 355.866 787.028 363.377C792.943 370.095 799.575 375.466 801.801 375.122L801.786 375.092Z" fill="#F1CCCD"/>
<path d="M787.327 365.711L798.888 356.958C798.888 356.958 789.284 333.916 780.904 342.071C775.123 347.696 780.74 358.185 787.327 365.711Z" fill="#222A74"/>
<path d="M810.719 400.153C843.402 400.438 873.575 399.48 901.179 401.934C906.602 402.413 912.099 401.874 917.192 402.128C917.192 402.128 917.252 396.114 917.371 395.455C912.278 394.378 906.96 392.957 901.747 391.969C877.384 387.376 851.707 383.845 825.074 381.152L810.719 400.168V400.153Z" fill="#F1CCCD"/>
<path d="M805.207 399.675C819.935 412.587 856.517 395.725 901.493 403.071L902.255 391.056C877.892 386.463 851.707 383.83 825.074 381.137L805.207 399.66V399.675Z" fill="#222A74"/>
<path d="M922.087 402.173L927.509 404.642L936.442 404.717L936.755 402.981L929.272 400.378L934.739 398.238C936.218 397.655 937.487 396.667 937.891 395.141C938.966 391.101 940.146 383.082 937.502 382.393C934.784 381.69 933.633 389.455 930.302 391.326C927.061 393.136 922.864 395.276 922.864 395.276L922.087 402.143V402.173Z" fill="#333D87"/>
<path d="M789.792 388.812C824.297 431.813 843.581 373.626 853.933 375.66C864.284 377.695 878.594 391.341 880.924 392.762C883.658 393.54 889.035 394.528 888.229 391.296C886.362 389.321 885.525 387.72 884.629 384.698C884.629 384.698 885.077 387.54 884.405 383.74C883.718 379.94 866.39 361.91 860.221 361.087C843.163 358.798 830.137 374.912 817.844 380.388C805.535 385.865 799.919 384.353 789.792 388.797V388.812Z" fill="#F1CCCD"/>
<path d="M789.762 388.648C795.781 402.891 809.195 405.689 817.127 405.136C835.784 403.819 848.122 376.723 856.128 378.339C857.831 378.683 872.455 386.747 876.294 390.712C879.162 389.186 885.361 384.802 885.45 384.413C881.716 378.099 868.123 360.474 861.073 359.232C843.745 356.195 806.417 382.738 789.777 388.648H789.762Z" fill="#222A74"/>
<path d="M886.7 392.717C886.7 394.588 886.297 395.141 886.416 397.311C886.551 399.495 887.238 403.295 887.492 405.779C888.089 405.854 888.672 405.824 889.255 405.869C889.762 403.28 890.24 400.677 890.763 398.119C891.57 399.69 892.884 401.694 893.616 403.176C894.333 404.657 895.946 405.659 897.082 405.854C900.099 406.378 908.718 407.201 909.3 403.744C909.883 400.303 901.608 400.153 899.86 397.849C898.112 395.56 896.245 393.316 894.453 391.101C891.854 391.625 889.284 392.179 886.7 392.717Z" fill="#414C96"/>
<path d="M545.834 183.966C551.57 188.604 557.739 193.273 564.655 198.479C586.464 164.65 584.746 123.04 545.536 99.5799C520.59 84.6477 497.93 79.7551 471.252 64.5237C468.309 72.7379 463.544 78.5582 460.452 85.8597C487.399 101.45 507.61 104.862 533.406 119.794C560.473 135.459 559.472 161.403 545.834 183.981V183.966Z" fill="#C76A0B"/>
<path d="M539.663 193.183C540.156 192.809 540.634 192.435 541.112 192.031C540.634 192.42 540.156 192.809 539.663 193.183Z" fill="#6571DB"/>
<path d="M421.899 151.334C442.02 174.465 446.142 187.961 468.294 209.207C471.715 212.259 475.509 214.863 479.527 217.137C507.834 233.61 545.341 224.454 564.655 198.494C559.323 194.38 553.99 190.265 548.657 186.151C529.986 203.537 500.574 209.282 480.737 188.545C460.258 167.448 454.134 150.571 433.281 128.397C428.173 131.973 423.662 136.312 418.792 140.187C421.197 142.775 423.572 145.334 425.872 148.012C424.543 149.119 423.213 150.227 421.899 151.349V151.334Z" fill="#C76A0B"/>
<path d="M421.884 151.319C444.514 176.276 449.1 194.32 475.942 214.953C491.193 224.932 508.327 226.982 525.863 224.199C472.342 229.511 458.929 182.245 425.872 147.982C424.035 148.521 423.348 150.361 421.899 151.319H421.884Z" fill="#914D08"/>
<path d="M534.136 198.405C530.909 199.482 527.668 200.23 524.292 200.649C534.853 198.09 543.92 193.931 551.642 186.136C552.598 186.869 553.554 187.617 554.51 188.35C548.281 193.273 541.828 196.504 534.121 198.405H534.136Z" fill="#C76A0B"/>
<path d="M465.755 82.942C468.996 84.7824 472.238 86.6227 475.539 88.3433C478.317 82.7475 481.335 76.8974 484.098 71.3015C480.767 69.521 477.257 67.7256 474.03 66.0947C471.252 71.6905 468.518 77.3462 465.74 82.957L465.755 82.942Z" fill="white"/>
<path d="M405.771 140.262C409.177 143.928 412.627 147.533 415.899 151.319C417.213 150.197 418.543 149.089 419.872 147.982C417.572 145.319 415.197 142.731 412.792 140.172C417.572 136.177 422.352 132.182 427.132 128.187C426.131 127.11 425.115 126.033 424.114 124.941C418.005 130.043 411.881 135.16 405.771 140.262Z" fill="#FFEEDC"/>
<path d="M415.792 140.172C418.197 142.746 420.572 145.319 422.872 147.982C427.652 143.987 432.372 140.097 437.137 136.058C434.867 133.23 432.537 130.731 430.132 128.173C425.352 132.167 420.572 136.162 415.792 140.157V140.172Z" fill="white"/>
<path d="M527.533 199.691C537.093 197.342 544.607 192.988 551.657 186.136C550.716 185.418 549.79 184.684 548.849 183.966C542.919 191.193 536.242 196.265 527.548 199.691H527.533Z" fill="#904D08"/>
<path d="M545.834 183.966C545.834 183.966 547.746 185.432 548.642 186.136C559.801 173.657 571.093 139.619 539.471 117.355C517.289 103.62 499.842 100.972 475.524 88.3435C474.195 89.6003 473.478 91.2611 473.224 92.9967C496.377 105.191 511.911 107.286 533.481 119.824C560.129 135.324 559.786 161.523 545.834 183.981V183.966Z" fill="#904D08"/>
<path d="M460.109 85.6652C464.455 88.134 468.772 90.6476 473.224 92.9368C473.985 91.3808 474.762 89.8247 475.524 88.2836C472.208 86.563 468.981 84.7226 465.74 82.8823C468.518 77.2865 471.282 71.6757 474.06 66.0799C472.955 65.4514 471.849 64.823 470.744 64.2096C467.204 71.3615 463.664 78.5134 460.124 85.6652H460.109Z" fill="#FFEEDC"/>
<path d="M384.321 131.733C387.159 132.856 389.908 132.676 392.88 132.212C396.167 131.689 399.916 130.926 402.575 133.484C403.785 134.636 405.547 132.751 404.352 131.599C402.291 129.609 399.572 128.965 396.779 129.1C393.06 129.265 389.206 130.896 385.561 129.459C384.023 128.861 382.783 131.135 384.321 131.733Z" fill="#C76A0B"/>
<path d="M389.758 115.2C391.327 119.494 395.674 120.078 399.602 120.991C404.427 122.113 407.31 125.868 410.058 129.714C411.029 131.06 413.225 129.699 412.254 128.337C410.058 125.27 407.728 122.113 404.442 120.123C402.649 119.046 400.678 118.567 398.646 118.148C396.196 117.654 393.209 117.086 392.238 114.437C391.67 112.881 389.191 113.629 389.758 115.2Z" fill="#C76A0B"/>
<path d="M403.994 103.336C404.92 103.336 406.175 108.213 406.548 109.006C407.22 110.457 407.997 111.849 408.863 113.196C410.805 116.248 413.12 119.031 415.421 121.829C416.481 123.115 418.244 121.215 417.198 119.943C414.345 116.472 411.447 112.956 409.386 108.931C408.385 106.971 407.922 104.907 407.086 102.902C406.488 101.51 405.428 100.762 403.934 100.747C402.261 100.747 402.351 103.336 404.024 103.336H403.994Z" fill="#C76A0B"/>
<path d="M439.615 80.5931C444.798 80.7576 451.191 76.4336 455.971 79.7402C457.345 80.6978 458.749 78.5133 457.39 77.5707C451.789 73.6806 445.724 78.1842 439.779 78.0046C438.121 77.9448 437.957 80.5482 439.615 80.5931Z" fill="#C76A0B"/>
<path d="M437.045 61.8307C439.674 64.4939 442.453 67.1123 446.232 67.9053C448.428 68.3691 450.638 68.4439 452.789 69.1471C455.045 69.8952 457.046 71.0473 458.899 72.5136C460.213 73.546 461.617 71.3765 460.318 70.3441C457.36 68.01 453.94 66.4839 450.235 65.8704C448.009 65.5113 445.858 65.4066 443.857 64.2396C442.005 63.1623 440.481 61.5913 438.987 60.0801C437.822 58.8981 435.895 60.6337 437.06 61.8157L437.045 61.8307Z" fill="#C76A0B"/>
<path d="M452.446 52.7187C455.717 54.2149 457.972 56.7435 458.973 60.2297C459.78 63.0575 460.362 65.616 462.693 67.591C463.962 68.6683 465.366 66.4838 464.112 65.4215C461.378 63.0874 461.677 58.4791 459.735 55.5316C458.137 53.1227 455.881 51.4619 453.282 50.2649C451.759 49.5767 450.967 52.0305 452.461 52.7187H452.446Z" fill="#C76A0B"/>
<path d="M395.27 393.6C395.27 393.6 391.297 416.043 385.486 417.584C382.857 418.287 379.481 417.704 376.255 416.597C370.803 414.741 365.784 411.465 365.62 410.567L360.093 393.75C363.274 395.126 381.423 405.48 382.902 406.482C385.307 402.876 390.505 393.48 390.684 392.792C390.684 392.792 389.564 387.735 390.55 386.313C391.431 385.057 391.76 389.186 392.133 388.692C392.537 388.139 394.942 382.289 396.54 383.994C400.095 387.81 395.285 393.615 395.285 393.615L395.27 393.6Z" fill="#F9CBCB"/>
<path d="M379.825 404.103C379.407 408.487 376.868 414.427 376.599 417.18C371.147 415.325 364.574 414.712 364.395 413.814L360.063 393.765C363.245 395.141 373.477 400.348 379.81 404.103H379.825Z" fill="#171C47"/>
<path d="M358.614 489.417C357.464 493.696 356.762 497.527 356.388 501.088C355.417 510.2 355.701 524.234 357.359 533.092L362.02 532.628C362.02 532.628 368.607 508.658 371.729 496.405C372.535 493.292 373.148 490.509 373.477 488.415C375.359 476.46 368.383 442.571 367.935 440.371V440.282L367.905 440.252L349.144 437.618C339.165 461.378 350.996 467.363 358.614 489.372V489.417Z" fill="#F1CCCD"/>
<path d="M349.771 469.892C352.415 475.353 355.806 481.293 358.614 489.417C357.568 493.292 356.388 497.317 355.029 502L371.266 504.275C372.073 501.163 373.148 490.524 373.477 488.43C375.359 476.475 368.383 442.586 367.935 440.387V440.297L367.905 440.267L349.144 437.633C342.855 452.625 345.23 460.54 349.771 469.862V469.892Z" fill="#171C47"/>
<path d="M349.771 469.892C352.415 475.353 355.806 481.293 358.614 489.417C357.568 493.292 356.388 497.317 355.029 502L358.031 502.419C358.539 497.781 362.632 490.15 364.021 490.39C362.796 490.091 351.653 468.201 350.802 460.63L349.786 469.892H349.771Z" fill="#293278"/>
<path d="M338.971 538.568L327.529 525.296C327.529 525.296 335.924 512.16 342.721 503.422C344.334 501.327 345.858 499.502 347.157 498.155C356.463 488.505 361.318 439.863 361.318 439.863H345.932C333.878 450.965 336.91 466.256 336.552 481.353C336.432 486.589 334.744 491.632 331.921 496.045C331.353 496.928 330.816 497.826 330.308 498.754C326.783 505.187 324.706 512.728 322.779 525.117L320.404 533.151L338.956 538.568H338.971Z" fill="#F1CCCD"/>
<path d="M329.546 498.484L333.997 500.519L343.034 504.664C344.648 502.569 345.872 499.502 347.172 498.155C356.478 488.505 362.483 439.668 362.483 439.668L346.604 439.848H345.947C334.296 450.591 336.746 465.238 336.596 479.841C336.537 485.796 334.61 491.617 330.98 496.345C330.442 497.033 329.964 497.751 329.561 498.499L329.546 498.484Z" fill="#171C47"/>
<path d="M329.546 498.484L333.997 500.519C335.446 498.26 337.612 493.966 338.747 491.063C341.765 483.402 339.912 472.989 340.644 458.341C341.182 447.553 350.279 442.317 350.279 442.317L346.604 439.848H345.947C334.296 450.591 336.746 465.238 336.596 479.841C336.537 485.796 334.61 491.617 330.98 496.345C330.442 497.033 329.964 497.751 329.561 498.499L329.546 498.484Z" fill="#222A74"/>
<path d="M338.135 408.457C338.269 418.168 340.659 435.015 341.556 441.075C341.69 441.957 342.168 442.706 342.855 443.184C343.229 443.454 343.677 443.633 344.14 443.693C348.487 444.336 352.744 444.695 356.881 444.681C360.616 444.681 364.245 444.396 367.786 443.783C369.16 443.543 370.22 442.436 370.37 441.03C370.863 436.451 369.429 426.397 369.653 416.612C369.802 410.417 367.86 394.572 356.329 392.089L349.562 392.029C341.989 394.004 338.807 399.809 338.284 403.864C338.12 405.061 338.075 406.647 338.105 408.457H338.135Z" fill="#222A74"/>
<path d="M362.572 531.311C369.757 534.064 377.719 533.78 378.212 540.273L355.626 539.48C355.358 536.727 355.821 534.004 357.001 531.311H362.572Z" fill="#171C47"/>
<path d="M324.544 525.296C330.295 530.413 338.884 534.019 337.062 540.273L316.209 533.286C316.926 530.623 317.897 526.329 319.944 524.219L324.544 525.296Z" fill="#171C47"/>
<path d="M354.237 386.119C352.042 386.807 351.145 387.899 348.337 386.628C344.05 384.683 340.435 377.261 346.126 373.91C346.515 372.728 346.918 372.279 348.412 371.95C349.906 371.621 351.444 372.279 353.505 372.249C355.567 372.219 358.495 370.08 360.287 373.087C362.094 376.094 357.628 378.428 355.388 379.91C353.147 381.391 353.879 383.949 354.222 386.119H354.237Z" fill="#171C47"/>
<path d="M349.502 392.044C351.967 394.513 354.282 394.976 356.358 392.089L355.776 387.331L355.537 385.326H350.1L349.995 386.568L349.517 392.044H349.502Z" fill="#F9CBCB"/>
<path d="M349.906 387.466C351.25 389.081 354.954 389.56 355.955 388.857L355.522 385.341L350.055 383.037L349.906 387.466Z" fill="#F0B4B4"/>
<path d="M358.315 375.81C359.316 378.638 360.302 384.892 357.897 387.211C356.373 388.677 350.876 388.109 349.756 384.069C348.427 383.112 347.456 380.763 348.681 379.7C349.547 378.937 350.667 380.942 352.191 380.613C352.774 380.493 350.996 376.618 352.803 375.96C354.611 375.286 356.508 376.738 358.33 375.81H358.315Z" fill="#F9CBCB"/>
<path d="M347.336 416.342C347.336 416.342 353.386 423.629 358.868 427.639C360.182 428.596 361.452 429.359 362.602 429.793C370.594 432.831 389.056 430.437 389.056 430.437C394.867 433.414 402.216 431.649 403.665 429.449C406.234 425.529 396.704 429.225 395.793 426.876C395.793 426.876 400.17 424.482 398.945 422.746C397.72 420.996 390.087 425.664 390.087 425.664C382.364 422.477 374.597 420.726 367.248 420.232C366.665 419.41 366.068 418.572 365.455 417.764C361.049 411.899 355.94 406.572 348.994 403.026C345.633 407.44 345.723 411.884 347.336 416.342Z" fill="#F9CBCB"/>
<path d="M357.15 427.833L366.695 417.15C362.288 411.285 353.864 398.448 347.978 403.58C340.151 410.402 351.668 423.823 357.15 427.833Z" fill="#171C47"/>
<path d="M641.07 31.8914V64.3741H629.732C624.385 64.3741 620.053 60.0351 620.053 54.6787V41.6018C620.053 36.2454 624.385 31.8914 629.732 31.8914H641.07Z" fill="#8C91BE"/>
<path d="M639.262 31.8914V62.9677H627.925C626.103 62.9677 624.385 62.459 622.936 61.5762C624.683 63.2968 627.073 64.3592 629.732 64.3592H641.07V31.8765H639.277L639.262 31.8914Z" fill="#606487"/>
<path d="M685.103 63.641C681.219 68.0548 648.327 64.3741 648.327 64.3741V31.8914C648.327 31.8914 653.704 28.9738 655.318 23.5725C656.901 18.2161 659.291 11.3634 663.414 12.4557C667.551 13.5479 669.075 24.7096 663.966 31.8765C663.966 31.8765 680.024 27.5225 684.386 32.2804C688.523 36.784 688.732 59.4965 685.088 63.626L685.103 63.641Z" fill="#8C91BE"/>
<path d="M687.401 32.2954C687.012 31.8615 686.519 31.5174 685.952 31.2181C689.492 37.1581 689.507 57.8207 686.056 61.7408C682.755 65.4813 658.572 63.4016 651.327 62.6834V64.3741C651.327 64.3741 684.204 68.0548 688.103 63.641C691.747 59.5114 691.538 36.799 687.401 32.2954Z" fill="#606487"/>
<path d="M862.014 117.983H824.506C820.686 117.983 817.59 121.085 817.59 124.911V155.688C817.59 159.514 820.686 162.615 824.506 162.615H862.014C865.833 162.615 868.93 159.514 868.93 155.688V124.911C868.93 121.085 865.833 117.983 862.014 117.983Z" fill="#C76A0B"/>
<path d="M865.852 119.135C866.315 120.063 866.584 121.125 866.584 122.248V153.01C866.584 156.84 863.492 159.937 859.668 159.937H822.161C820.742 159.937 819.427 159.518 818.337 158.785C819.472 161.059 821.817 162.615 824.521 162.615H862.028C865.852 162.615 868.944 159.518 868.944 155.688V124.926C868.944 122.517 867.72 120.392 865.852 119.15V119.135Z" fill="#904D08"/>
<path d="M839.099 149.344C837.8 149.972 836.291 149.03 836.276 147.593L836.202 140.412L836.127 133.23C836.127 131.778 837.606 130.806 838.92 131.419L847.016 135.16L854.156 138.452C855.665 139.155 855.695 141.294 854.186 142.012L847.106 145.454L839.085 149.359L839.099 149.344Z" fill="white"/>
<path d="M843.207 157.603C833.453 157.603 825.507 149.643 825.507 139.873C825.507 130.103 833.453 122.143 843.207 122.143C852.961 122.143 860.908 130.103 860.908 139.873C860.908 149.643 852.961 157.603 843.207 157.603ZM843.207 123.4C834.14 123.4 826.761 130.791 826.761 139.873C826.761 148.955 834.14 156.346 843.207 156.346C852.274 156.346 859.653 148.955 859.653 139.873C859.653 130.791 852.274 123.4 843.207 123.4Z" fill="white"/>
<path d="M1046.42 206H1008.92C1005.1 206 1002 209.101 1002 212.927V243.704C1002 247.53 1005.1 250.632 1008.92 250.632H1046.42C1050.24 250.632 1053.34 247.53 1053.34 243.704V212.927C1053.34 209.101 1050.24 206 1046.42 206Z" fill="#C76A0B"/>
<path d="M1050.26 207.152C1050.72 208.08 1050.99 209.142 1050.99 210.264V241.026C1050.99 244.857 1047.9 247.954 1044.08 247.954H1006.57C1005.15 247.954 1003.84 247.535 1002.75 246.802C1003.88 249.076 1006.23 250.632 1008.93 250.632H1046.44C1050.26 250.632 1053.35 247.535 1053.35 243.704V212.942C1053.35 210.534 1052.13 208.409 1050.26 207.167V207.152Z" fill="#904D08"/>
<path d="M1023.51 237.361C1022.21 237.989 1020.7 237.046 1020.69 235.61L1020.61 228.428L1020.54 221.246C1020.54 219.795 1022.01 218.822 1023.33 219.436L1031.43 223.176L1038.57 226.468C1040.07 227.171 1040.1 229.311 1038.6 230.029L1031.52 233.47L1023.49 237.375L1023.51 237.361Z" fill="white"/>
<path d="M1027.62 245.62C1017.86 245.62 1009.92 237.66 1009.92 227.889C1009.92 218.119 1017.86 210.159 1027.62 210.159C1037.37 210.159 1045.32 218.119 1045.32 227.889C1045.32 237.66 1037.37 245.62 1027.62 245.62ZM1027.62 211.416C1018.55 211.416 1011.17 218.808 1011.17 227.889C1011.17 236.971 1018.55 244.363 1027.62 244.363C1036.68 244.363 1044.06 236.971 1044.06 227.889C1044.06 218.808 1036.68 211.416 1027.62 211.416Z" fill="white"/>
<path d="M865.539 196.789C843.387 196.789 825.432 214.773 825.432 236.962C825.432 244.667 827.598 251.879 831.362 257.984L822.444 279.2L847.748 272.961C853.111 275.624 859.145 277.12 865.524 277.12C887.676 277.12 905.63 259.136 905.63 236.947C905.63 214.758 887.676 196.774 865.524 196.774L865.539 196.789Z" fill="#C76A0B"/>
<path d="M892.187 206.933C897.564 213.127 901.105 221.027 901.866 229.84C903.763 251.939 887.407 271.39 865.345 273.29C858.981 273.843 852.842 272.856 847.285 270.671L822.609 279.05L822.863 278.257L822.474 279.185L847.778 272.946C853.141 275.609 859.175 277.105 865.554 277.105C887.706 277.105 905.661 259.121 905.661 236.932C905.661 224.992 900.462 214.279 892.202 206.918L892.187 206.933Z" fill="#904D08"/>
<path d="M886.346 226.862C884.18 222.194 878.713 218.888 873.425 220.593C867.764 222.419 865.583 229.256 865.344 230.049C865.344 230.349 865.344 230.648 865.344 230.947C865.344 230.648 865.344 230.349 865.329 230.049C865.09 229.256 862.924 222.419 857.248 220.593C851.96 218.888 846.493 222.194 844.327 226.862C840.369 235.421 848.689 246.029 849.63 247.226C855.262 254.393 862.715 255.59 865.419 255.829C865.479 255.829 865.524 255.829 865.583 255.829C865.658 255.829 865.733 255.814 865.807 255.799C868.496 255.485 875.606 254.138 881.043 247.211C881.999 245.984 890.32 235.406 886.346 226.848V226.862Z" fill="white"/>
<path d="M478.723 260.243H395.552C393.126 260.243 391.16 262.212 391.16 264.642V319.418C391.16 321.847 393.126 323.817 395.552 323.817H478.723C481.148 323.817 483.115 321.847 483.115 319.418V264.642C483.115 262.212 481.148 260.243 478.723 260.243Z" fill="#C76A0B"/>
<path d="M479.126 260.258C479.261 260.692 479.335 261.141 479.335 261.605V316.366C479.335 318.79 477.364 320.765 474.944 320.765H391.788C391.653 320.765 391.519 320.765 391.384 320.75C391.952 322.515 393.61 323.802 395.567 323.802H478.723C481.143 323.802 483.115 321.827 483.115 319.403V264.642C483.115 262.353 481.367 260.467 479.126 260.258Z" fill="#904D08"/>
<path d="M400.167 308.87L417.181 285.439C418.092 284.182 419.959 284.242 420.811 285.529L435.3 307.733C436.211 309.124 438.258 309.049 439.064 307.613L442.336 301.823C443.187 300.326 445.338 300.326 446.174 301.823L448.953 306.73C449.864 308.346 452.239 308.182 452.926 306.461L460.544 287.115C461.291 285.2 464.025 285.275 464.682 287.22L472.21 309.453C472.688 310.89 471.628 312.371 470.119 312.371H401.96C400.152 312.371 399.122 310.321 400.182 308.855L400.167 308.87Z" fill="white"/>
<path d="M433.358 277.659C433.358 274.098 436.241 271.21 439.796 271.21C443.351 271.21 446.234 274.098 446.234 277.659C446.234 281.22 443.351 284.108 439.796 284.108C436.241 284.108 433.358 281.22 433.358 277.659Z" fill="white"/>
<path d="M416.735 274.891C416.616 274.891 416.496 274.891 416.392 274.921C416.392 274.831 416.392 274.741 416.392 274.652C416.392 273.23 415.242 272.078 413.823 272.078C412.613 272.078 411.597 272.916 411.328 274.038C411.059 273.784 410.701 273.634 410.297 273.634C409.745 273.634 409.252 273.933 408.998 274.382C408.744 274.277 408.46 274.218 408.176 274.218C407.011 274.218 406.085 275.16 406.085 276.312C406.085 277.464 407.026 278.407 408.176 278.407C408.669 278.407 409.117 278.242 409.476 277.958C410.163 278.542 411.313 278.916 412.598 278.916C413.808 278.916 414.898 278.587 415.585 278.063C415.899 278.317 416.287 278.467 416.72 278.467C417.706 278.467 418.513 277.659 418.513 276.671C418.513 275.684 417.706 274.876 416.72 274.876L416.735 274.891Z" fill="white"/>
<path d="M467.398 274.891C467.278 274.891 467.159 274.891 467.054 274.921C467.054 274.831 467.054 274.741 467.054 274.652C467.054 273.23 465.904 272.078 464.485 272.078C463.275 272.078 462.259 272.916 461.991 274.038C461.722 273.784 461.363 273.634 460.96 273.634C460.407 273.634 459.914 273.933 459.66 274.382C459.406 274.277 459.123 274.218 458.824 274.218C457.659 274.218 456.733 275.16 456.733 276.312C456.733 277.464 457.674 278.407 458.824 278.407C459.317 278.407 459.765 278.242 460.123 277.958C460.811 278.542 461.961 278.916 463.245 278.916C464.455 278.916 465.546 278.587 466.233 278.063C466.546 278.317 466.935 278.467 467.368 278.467C468.354 278.467 469.161 277.659 469.161 276.671C469.161 275.684 468.354 274.876 467.368 274.876L467.398 274.891Z" fill="white"/>
<path d="M396.649 209.385C401.992 193.069 393.119 175.504 376.83 170.152C360.541 164.801 343.005 173.689 337.662 190.005C332.319 206.32 341.193 223.886 357.482 229.237C373.77 234.589 391.307 225.701 396.649 209.385Z" fill="#C76A0B"/>
<path d="M380.154 171.443C389.982 177.473 396.062 188.769 394.852 201.038C393.164 218.125 377.973 230.603 360.914 228.912C357.374 228.568 354.043 227.626 350.981 226.219C354.85 228.583 359.301 230.139 364.111 230.618C381.169 232.309 396.361 219.83 398.049 202.744C399.393 189.203 391.835 176.829 380.154 171.443Z" fill="#904D08"/>
<path d="M375.218 199.429C379.926 194.714 379.926 187.069 375.218 182.353C370.511 177.638 362.878 177.638 358.171 182.353C353.463 187.069 353.463 194.714 358.171 199.429C362.878 204.145 370.511 204.145 375.218 199.429Z" fill="white"/>
<path d="M377.749 203.058C376.778 202.295 375.419 202.325 374.478 203.103C372.401 204.793 369.757 205.826 366.859 205.826C363.962 205.826 361.482 204.868 359.451 203.267C358.48 202.504 357.105 202.519 356.164 203.327C353.73 205.422 352.251 208.429 352.251 212.334V212.693C352.251 214.713 353.894 216.359 355.91 216.359H378.421C380.438 216.359 382.081 214.713 382.081 212.693V212.334C382.081 208.25 380.423 205.152 377.749 203.058Z" fill="white"/>
<path d="M1075.71 67.7256C1075.49 66.0648 1074.07 64.4638 1072.17 64.404C1070.16 64.3441 1068.75 66.1845 1068.59 66.4089C1068.59 66.1396 1068.59 63.8205 1066.94 62.6385C1065.41 61.5462 1063.3 61.9502 1062.12 63.1322C1059.95 65.3017 1061.57 69.4462 1061.75 69.925C1062.84 72.7229 1065.12 73.9049 1065.97 74.279C1065.99 74.279 1066 74.2939 1066.02 74.2939C1066.05 74.2939 1066.06 74.2939 1066.09 74.3089C1067 74.5034 1069.44 74.8775 1071.9 73.3513C1072.34 73.082 1076.12 70.7629 1075.71 67.7256Z" fill="white"/>
<path d="M1227.46 13.7211L1229.19 24.7631L1232.85 24.1796C1234.57 23.9103 1235.75 22.2046 1235.45 20.3942L1234.75 15.9505C1234.46 14.1251 1232.84 12.8683 1231.1 13.1376L1227.44 13.7211H1227.46Z" fill="#8C91BE"/>
<path d="M1215.9 26.6034C1217.39 27.9051 1227.8 24.9726 1227.8 24.9726L1226.07 13.9305C1226.07 13.9305 1224.17 13.2124 1223.37 11.4618C1222.57 9.72618 1221.42 7.51179 1220.15 8.09532C1218.88 8.67884 1218.99 12.554 1221.01 14.7235C1221.01 14.7235 1215.58 14.0652 1214.43 15.9055C1213.34 17.6411 1214.49 25.3765 1215.88 26.6034H1215.9Z" fill="#8C91BE"/>
<path d="M16.0127 18.2994L14.69 27.4687L18.8383 29.4305C20.7858 30.3542 22.5533 29.8714 22.77 28.3655L23.2988 24.6737C23.5155 23.1678 22.1085 21.185 20.161 20.2612L16.0127 18.2994Z" fill="#8C91BE"/>
<path d="M1.71884 22.6762C2.94494 24.5687 15.0247 29.1584 15.0247 29.1584L16.3367 20.0935C16.3367 20.0935 14.5087 18.3549 14.1429 16.5836C13.777 14.8124 13.1973 12.5008 11.6608 12.0968C10.1207 11.7041 9.12036 14.5498 10.6708 17.426C10.6708 17.426 5.02526 13.4651 3.25654 14.0527C1.57398 14.609 0.569538 20.9054 1.73515 22.6853L1.71884 22.6762Z" fill="#8C91BE"/>
<path d="M171.988 66.4998C169.852 65.4974 166.85 65.9762 165.326 68.1756C163.698 70.5396 164.833 73.6218 164.953 73.9809C165.043 74.0856 165.117 74.1904 165.207 74.2951C165.117 74.1904 165.028 74.0856 164.953 73.9809C164.639 73.7714 161.876 71.9909 159.217 73.0532C156.737 74.0407 155.602 76.8686 156.125 79.1877C157.051 83.4369 163.205 84.6788 163.907 84.8284C168.075 85.6812 171.227 83.8409 172.302 83.1227C172.332 83.1078 172.347 83.0928 172.362 83.0778C172.392 83.0479 172.407 83.033 172.436 83.003C173.363 82.0754 175.663 79.457 175.753 75.3424C175.768 74.6093 175.902 68.3402 171.973 66.4998H171.988Z" fill="white"/>
</svg>
