<svg width="412" height="98" viewBox="0 0 412 98" fill="none" xmlns="http://www.w3.org/2000/svg">
<path d="M401.838 82.0044L404.432 94.2963L408.508 93.43C410.429 93.0176 411.637 91.0514 411.211 89.0303L410.168 84.0805C409.743 82.0594 407.835 80.7395 405.914 81.1382L401.838 82.0044Z" fill="#8C91BE"/>
<path d="M389.61 97.1423C391.367 98.5172 402.881 94.6262 402.881 94.6262L400.287 82.3343C400.287 82.3343 398.119 81.6331 397.117 79.722C396.115 77.8108 394.715 75.4047 393.316 76.1334C391.916 76.8621 392.259 81.2069 394.661 83.5305C394.661 83.5305 388.54 83.1043 387.36 85.2354C386.234 87.2566 387.963 95.8636 389.61 97.1561V97.1423Z" fill="#8C91BE"/>
<path d="M340.517 9.26153C340.311 7.73536 339.007 6.26418 337.264 6.20918C335.411 6.15419 334.121 7.84534 333.97 8.05158C333.97 7.8041 333.97 5.67296 332.461 4.58677C331.047 3.58307 329.112 3.9543 328.028 5.0405C326.038 7.03414 327.52 10.8427 327.685 11.2827C328.687 13.8538 330.787 14.94 331.569 15.2837C331.582 15.2837 331.596 15.2975 331.61 15.3112C331.637 15.3112 331.651 15.3112 331.679 15.325C332.516 15.5037 334.753 15.8474 337.017 14.445C337.415 14.1975 340.887 12.0664 340.517 9.27527V9.26153Z" fill="white"/>
<path d="M261.517 77.2615C261.311 75.7354 260.007 74.2642 258.264 74.2092C256.411 74.1542 255.121 75.8454 254.97 76.0516C254.97 75.8041 254.97 73.673 253.461 72.5868C252.047 71.5831 250.112 71.9543 249.028 73.0405C247.038 75.0341 248.52 78.8427 248.685 79.2827C249.687 81.8538 251.787 82.94 252.569 83.2837C252.583 83.2837 252.596 83.2975 252.61 83.2975C252.637 83.2975 252.651 83.2975 252.679 83.3112C253.516 83.49 255.753 83.8337 258.017 82.4313C258.415 82.1838 261.887 80.0526 261.517 77.2615Z" fill="white"/>
<path d="M145.689 76.4594C143.727 75.5382 140.968 75.9782 139.569 77.9993C138.073 80.1717 139.116 83.004 139.225 83.334C139.308 83.4303 139.376 83.5265 139.459 83.6228C139.376 83.5265 139.294 83.4303 139.225 83.334C138.937 83.1415 136.398 81.5054 133.956 82.4816C131.677 83.389 130.634 85.9876 131.115 88.1188C131.966 92.0236 137.62 93.1648 138.265 93.3023C142.094 94.086 144.989 92.3948 145.978 91.7348C146.005 91.7211 146.019 91.7073 146.032 91.6936C146.06 91.6661 146.074 91.6524 146.101 91.6249C146.952 90.7724 149.065 88.3663 149.148 84.5852C149.161 83.9115 149.285 78.1505 145.676 76.4594H145.689Z" fill="white"/>
<path d="M182.562 5.5667L183.646 15.7824L187.036 15.4249C188.628 15.2599 189.781 13.7475 189.602 12.0701L189.163 7.95908C188.985 6.28166 187.544 5.04423 185.952 5.20922L182.562 5.5667Z" fill="#8C91BE"/>
<path d="M171.364 16.8548C172.667 18.1198 182.37 15.9199 182.37 15.9199L181.286 5.70417C181.286 5.70417 179.584 4.94796 178.925 3.31179C178.267 1.67563 177.333 -0.400514 176.139 0.0669612C174.945 0.548186 174.863 4.0955 176.62 6.19914C176.62 6.19914 171.679 5.33294 170.54 6.9691C169.456 8.52277 170.142 15.6724 171.377 16.8548H171.364Z" fill="#8C91BE"/>
<path d="M7.69817 56.4462L12.9406 70.3193L8.09616 72.1617C5.81803 73.0279 3.26542 71.8729 2.40082 69.5905L0.287372 64.0083C-0.577221 61.726 0.575574 59.1686 2.85371 58.3024L7.69817 56.46V56.4462Z" fill="#8C91BE"/>
<path d="M33.3423 63.3621C32.3954 65.8782 17.7659 69.6318 17.7659 69.6318L12.5234 55.7587C12.5234 55.7587 14.3487 53.6414 14.1703 51.0702C13.9782 48.5266 13.8958 45.213 15.8309 45.0068C17.7796 44.8006 20.2224 49.3241 19.2069 53.2151C19.2069 53.2151 25.3551 48.7466 27.99 50.0803C30.4878 51.3315 34.2343 60.9972 33.356 63.3483L33.3423 63.3621Z" fill="#8C91BE"/>
</svg>
