<svg width="32" height="32" viewBox="0 0 32 32" fill="none" xmlns="http://www.w3.org/2000/svg">
<g id="AlignLeft-f">
<path id="Vector" d="M6 5V27C6 27.2652 5.89464 27.5196 5.70711 27.7071C5.51957 27.8946 5.26522 28 5 28C4.73478 28 4.48043 27.8946 4.29289 27.7071C4.10536 27.5196 4 27.2652 4 27V5C4 4.73478 4.10536 4.48043 4.29289 4.29289C4.48043 4.10536 4.73478 4 5 4C5.26522 4 5.51957 4.10536 5.70711 4.29289C5.89464 4.48043 6 4.73478 6 5ZM10 15H22C22.5304 15 23.0391 14.7893 23.4142 14.4142C23.7893 14.0391 24 13.5304 24 13V8C24 7.46957 23.7893 6.96086 23.4142 6.58579C23.0391 6.21071 22.5304 6 22 6H10C9.46957 6 8.96086 6.21071 8.58579 6.58579C8.21071 6.96086 8 7.46957 8 8V13C8 13.5304 8.21071 14.0391 8.58579 14.4142C8.96086 14.7893 9.46957 15 10 15ZM27 17H10C9.46957 17 8.96086 17.2107 8.58579 17.5858C8.21071 17.9609 8 18.4696 8 19V24C8 24.5304 8.21071 25.0391 8.58579 25.4142C8.96086 25.7893 9.46957 26 10 26H27C27.5304 26 28.0391 25.7893 28.4142 25.4142C28.7893 25.0391 29 24.5304 29 24V19C29 18.4696 28.7893 17.9609 28.4142 17.5858C28.0391 17.2107 27.5304 17 27 17Z" fill="white"/>
</g>
</svg>
