<svg width="32" height="32" viewBox="0 0 32 32" fill="none" xmlns="http://www.w3.org/2000/svg">
<g id="Phone-r">
<path id="Vector" fill-rule="evenodd" clip-rule="evenodd" d="M14.5481 11.9993L12.4645 15.1682C12.4645 15.1682 13.9017 18.1328 16.8655 19.5586L16.8695 19.5559L19.9887 17.4723C19.9887 17.4723 20.4123 17.185 20.922 17.1381C20.922 17.1381 21.4317 17.0911 21.8946 17.2936L27.7343 19.8017C27.7343 19.8017 28.3546 20.0599 28.6911 20.6416C28.6911 20.6416 29.0275 21.2233 28.9419 21.8895C28.9419 21.8895 28.6063 24.5092 26.6238 26.2543C26.6238 26.2543 24.6413 27.9993 22 27.9999C22 27.9999 18.4196 27.9999 15.1117 26.6298C15.1117 26.6298 11.8038 25.2596 9.27208 22.7279C9.27208 22.7279 6.74033 20.1961 5.37017 16.8882C5.37017 16.8882 4 13.5804 4 9.99971C4 9.99971 4.0006 7.3586 5.74566 5.37614C5.74566 5.37614 7.49073 3.39368 10.1101 3.05808C10.1101 3.05808 10.7766 2.97247 11.3583 3.30888C11.3583 3.30888 11.94 3.64528 12.1941 4.25601L14.7047 10.1141C14.7047 10.1141 14.9037 10.5723 14.8639 11.0703C14.8639 11.0703 14.8241 11.5683 14.5481 11.9993ZM10.6605 16.0316L10.6589 16.0283C10.6589 16.0283 10.4354 15.5591 10.4686 15.0403C10.4686 15.0403 10.502 14.5196 10.7855 14.0816L12.8702 10.9107L10.3559 5.04385C10.3559 5.04385 8.49025 5.28512 7.2469 6.69761C7.2469 6.69761 6.00043 8.11366 6 10.0002C6 10.0002 6 13.1825 7.21793 16.1229C7.21793 16.1229 8.43585 19.0632 10.6863 21.3136C10.6863 21.3136 12.9367 23.5641 15.8771 24.782C15.8771 24.782 18.8174 25.9999 22 25.9999C22 25.9999 23.8863 25.9995 25.3023 24.753C25.3023 24.753 26.7149 23.5096 26.9569 21.6444L21.1056 19.1314L17.9805 21.219C17.9805 21.219 17.5453 21.5128 17.0169 21.5529C17.0169 21.5529 16.4885 21.593 16.0095 21.3662C16.0095 21.3662 12.4037 19.6316 10.6625 16.0358L10.6617 16.0342L10.6613 16.0333L10.6605 16.0316Z" fill="#1C1C1C"/>
</g>
</svg>
